<svg id="Layer_1" data-name="Layer 1" xmlns="http://www.w3.org/2000/svg" viewBox="0 0 1079.53 1199.27"><defs><style>.cls-1{fill:#4d2e0d;}.cls-1,.cls-2,.cls-3{fill-rule:evenodd;}.cls-2{fill:#963;}.cls-3{fill:#704517;}.cls-4{fill:#fff;}</style></defs><title>bear_ad_aureliendrey_logo_2</title><polygon class="cls-1" points="539.76 0 1079.53 311.63 1079.53 934.9 901.41 1037.73 860.92 978.35 1007.85 893.52 1007.85 353.02 539.76 82.78 71.68 353.02 71.68 893.52 218.61 978.35 178.12 1037.73 0 934.9 0 311.63 539.76 0"/><path class="cls-1" d="M412.3,525.93c40-3.53,76.87,43.74,82.32,105.58S472.05,746.34,432,749.87s-76.87-43.75-82.31-105.59,22.56-114.83,62.57-118.35m181.75-81.48c40.17,0,72.73,50.33,72.73,112.41s-32.56,112.4-72.73,112.4-72.73-50.33-72.73-112.4S553.88,444.45,594.05,444.45ZM788.36,511c-40-3.53-76.87,43.74-82.33,105.58s22.57,114.83,62.59,118.36,76.87-43.74,82.32-105.58S828.37,514.5,788.36,511ZM944.81,648.5c-39.44-7.6-80.93,35.67-92.66,96.63s10.73,116.52,50.18,124.12,80.93-35.67,92.67-96.63S984.26,656.09,944.81,648.5Zm-689,15c39.45-7.59,80.94,35.67,92.67,96.63s-10.73,116.53-50.18,124.13-80.93-35.68-92.67-96.63S216.4,671.05,255.84,663.45Z" transform="translate(-60.57)"/><path class="cls-2" d="M431.65,404.93c-3.78,38.83-2.22,77,6.13,114.43-27.28-9.05-46.56-3.37-60.41,12.32-6.06-55.18,17.27-94.62,54.28-126.75m197.67-79.42c-8.25,38.12-11.14,76.25-7.19,114.37-26-12.17-45.85-8.76-61.43,5.22C561.08,389.59,588.84,353.12,629.32,325.51ZM773.09,391.2c3.77,38.83,2.21,77-6.14,114.44,27.28-9.06,46.56-3.38,60.42,12.32C833.43,462.78,810.09,423.33,773.09,391.2ZM922,542.82c3.29,33.82,1.93,67.11-5.34,99.7,23.76-7.89,40.56-2.94,52.63,10.73C974.53,605.18,954.2,570.81,922,542.82Zm-646.7,15c-3.29,33.83-1.93,67.11,5.34,99.7C256.84,649.65,240,654.6,228,668.28,222.69,620.2,243,585.84,275.26,557.84Z" transform="translate(-60.57)"/><path class="cls-1" d="M504.59,750.94,346.44,879.68,238.61,1037.84,334,1199.27h532.6l95.42-161.43L854.21,879.68,696.06,750.94c-78.16-2.47-113.31-2.47-191.47,0" transform="translate(-60.57)"/><polygon class="cls-2" points="273.46 1199.27 635.49 750.94 285.88 879.68 273.46 1199.27"/><polygon class="cls-3" points="178.04 1037.84 285.88 879.68 273.46 1199.27 178.04 1037.84"/><polygon class="cls-2" points="806.07 1199.27 793.65 879.68 901.49 1037.84 806.07 1199.27"/><polygon class="cls-3" points="793.65 879.68 635.49 750.94 806.07 1199.27 793.65 879.68"/><path class="cls-4" d="M547.27,927.2l-14,23.48,97.83,163.73h28Zm40.41,27.42,98.48,164.83-14.95-25c.78,0,1.56,0,2.35,0,45.51,0,82.41-35.65,82.41-79.63s-36.9-79.63-82.41-79.63C642.23,935.2,615,952.1,601,977ZM469.46,1057.43l-14,23.48h45.44l14-23.48Zm-43,72.06a10.59,10.59,0,0,1-14.18,3.7,9.86,9.86,0,0,1-3.83-13.7L511.07,947.66a9.94,9.94,0,0,1,2.53-4.25l24.68-41.3a10.59,10.59,0,0,1,14.18-3.7,10.19,10.19,0,0,1,3.81,3.67h0L578,938.38a125.56,125.56,0,0,1,95.58-43.45c68.53,0,124.08,53.68,124.08,119.9s-55.55,119.9-124.08,119.9q-3.25,0-6.48-.16h-42a10.46,10.46,0,0,1-9.39-5.69L521.23,970.79l-39.75,66.53H533a10.23,10.23,0,0,1,10.42,10,9.73,9.73,0,0,1-1.39,5l0,0L516,1096a10.55,10.55,0,0,1-9.8,5H443.42Z" transform="translate(-60.57)"/></svg>