<?xml version="1.0" encoding="UTF-8"?>
<!-- Generator: Adobe Illustrator 15.1.0, SVG Export Plug-In . SVG Version: 6.00 Build 0)  -->
<!DOCTYPE svg PUBLIC "-//W3C//DTD SVG 1.1//EN" "http://www.w3.org/Graphics/SVG/1.1/DTD/svg11.dtd">
<svg version="1.1" id="Calque_1" xmlns="http://www.w3.org/2000/svg" xmlns:xlink="http://www.w3.org/1999/xlink" x="0px" y="0px" width="529px" height="270px" viewBox="0 0 529 270" enable-background="new 0 0 529 270" xml:space="preserve">
<g>
	<g>
		<defs>
			<rect id="SVGID_1_" x="-157.396" y="-425" width="2217.457" height="2063.938"/>
		</defs>
		<clipPath id="SVGID_2_">
			<use xlink:href="#SVGID_1_" overflow="visible"/>
		</clipPath>
		<g clip-path="url(#SVGID_2_)">
			<defs>
				<rect id="SVGID_3_" x="-157.396" y="-425" width="2217.457" height="2063.938"/>
			</defs>
			<clipPath id="SVGID_4_">
				<use xlink:href="#SVGID_3_" overflow="visible"/>
			</clipPath>
			<path clip-path="url(#SVGID_4_)" fill="#222221" d="M32.109,174.416c-0.521,0-0.815-0.075-1.108-0.271     c-0.47-0.303-0.961-1.141-1.236-1.616c-0.474-0.839-1.008-1.717-1.519-2.469c-0.082,0.024-0.149,0.024-0.21,0.024     c-0.141,0-0.25-0.024-0.388-0.024v0.752c0,0.369,0.012,0.761,0.012,1.138c0.017,0.753,0.023,1.084,0.144,1.372     c0.143,0.369,0.395,0.542,0.858,0.586v0.396l-0.325-0.015c-0.367-0.015-0.87,0-1.531,0c-0.644,0-1.148-0.015-1.516,0     l-0.339,0.015v-0.396c0.353-0.028,0.521-0.098,0.69-0.281c0.162-0.178,0.255-0.426,0.279-0.753     c0.043-0.419,0.054-0.668,0.054-2.062v-2.356c0-1.715-0.054-2.134-0.146-2.523c-0.104-0.379-0.398-0.531-0.878-0.595v-0.389     c0.277,0.027,0.57,0.012,0.852,0.012c0.728,0,0.942,0,1.818-0.045c0.759-0.023,1.191-0.038,1.527-0.038     c0.957,0,1.525,0.147,2.007,0.475c0.528,0.379,0.893,1.109,0.893,1.847c0,1.145-0.764,2.085-2.058,2.557     c0.534,0.681,0.954,1.359,1.443,2.124c0.452,0.715,0.899,1.336,1.25,1.683c0.194,0.207,0.317,0.28,0.588,0.346v0.396     C32.904,174.384,32.546,174.416,32.109,174.416 M28.5,165.629c-0.273,0-0.531,0.045-0.84,0.117c0,0.829-0.012,2.334-0.012,3.492     c0.155,0.029,0.431,0.045,0.62,0.045c1.148,0,1.923-0.716,1.923-1.812C30.19,166.401,29.479,165.629,28.5,165.629"/>
			<path clip-path="url(#SVGID_4_)" fill="#222221" d="M36.721,165.815l-0.545-0.319l1.14-1.686l1.337,0.24L36.721,165.815z      M39.302,174.125c-0.106,0.178-0.227,0.206-0.852,0.206c-0.392,0-0.778-0.021-1.176-0.028c-0.554-0.015-1.105-0.043-1.667-0.043     c-0.558,0-1.114,0.022-1.669,0.043v-0.324c0.521-0.039,0.758-0.354,0.799-0.859c0.03-0.346,0.03-0.709,0.03-1.318v-3.276     c0-0.62-0.03-0.895-0.124-1.14c-0.101-0.298-0.307-0.441-0.705-0.484v-0.322h5.419c0,0.332-0.002,0.683-0.002,1.013     c0,0.276-0.022,0.548,0.002,0.824h-0.41c-0.09-0.885-0.462-1.133-1.844-1.133c-0.251,0-0.595,0.008-0.87,0.023     c-0.029,0.457-0.037,0.599-0.037,1.277v1.342c0.176,0.017,0.313,0.017,0.525,0.017c1.21,0,1.576-0.187,1.649-0.809h0.411     c-0.027,0.184-0.027,0.565-0.027,1.152c0,0.595,0.012,0.939,0.027,1.127H38.37c-0.043-0.668-0.353-0.825-1.546-0.825     c-0.21,0-0.419,0.007-0.628,0.007c0,0.73,0.008,1.468,0.008,2.193c0,0.485,0.082,0.647,0.364,0.716     c0.173,0.041,0.439,0.062,0.803,0.062c1.248,0,1.681-0.284,1.954-1.229l0.453,0.089     C39.624,173.235,39.423,173.906,39.302,174.125"/>
			<path clip-path="url(#SVGID_4_)" fill="#222221" d="M44.131,170.854c-0.121,0-0.164,0-0.316-0.004l-0.264-0.591     c1.096-0.071,1.694-0.604,1.694-1.483c0-0.931-0.63-1.594-1.514-1.594c-0.148,0-0.265,0.014-0.438,0.051     c0,0.72-0.026,1.435-0.026,2.158v2.024c0,1.516,0.012,1.776,0.131,2.079c0.108,0.305,0.307,0.445,0.701,0.486v0.323l-0.277-0.017     c-0.303-0.004-0.72-0.004-1.279-0.004c-0.538,0-0.957,0-1.255,0.004l-0.281,0.017v-0.323c0.527-0.048,0.753-0.355,0.8-0.862     c0.041-0.348,0.041-0.556,0.041-1.703v-2.89c0-0.622-0.041-0.898-0.128-1.14c-0.112-0.301-0.32-0.441-0.712-0.484v-0.323     c0.141,0.003,0.034,0.003,0.539,0.003c0.188,0,0.466,0,0.844-0.003c0.595-0.03,1.173-0.06,1.772-0.06     c1.651,0,2.625,0.813,2.625,2.148C46.785,169.938,45.667,170.854,44.131,170.854"/>
			<path clip-path="url(#SVGID_4_)" fill="#222221" d="M54.664,167.155c-0.127,0.176-0.178,0.407-0.208,0.87     c-0.024,0.501-0.033,0.882-0.033,1.589c0,0.275,0.009,1.075,0.009,1.87c0,0.813-0.119,1.305-0.462,1.786     c-0.524,0.771-1.417,1.171-2.573,1.171c-0.731,0-1.281-0.139-1.804-0.486c-0.817-0.517-1.125-1.203-1.125-2.438     c0-1.247,0.019-1.788,0.019-2.198c0-0.587,0.037-1.198-0.055-1.776c-0.08-0.428-0.3-0.599-0.785-0.642v-0.325l0.274,0.007     c0.285,0.025,0.71,0.025,1.27,0.025c0.559,0,0.99,0,1.298-0.025l0.266-0.007v0.325c-0.361,0.043-0.539,0.129-0.658,0.331     c-0.099,0.176-0.144,0.413-0.16,0.915c-0.021,0.726-0.039,1.451-0.039,2.172c0,2.003,0.055,2.382,0.411,2.803     c0.28,0.327,0.753,0.548,1.307,0.548c0.784,0,1.531-0.398,1.765-1.169c0.148-0.495,0.169-0.859,0.169-2.182v-1.139     c0-1.316-0.039-1.724-0.162-1.92c-0.129-0.214-0.309-0.322-0.603-0.359v-0.325c0.466,0.032,0.627,0.032,1.207,0.032     c0.597,0,0.75,0,1.219-0.032v0.325C54.948,166.938,54.784,167,54.664,167.155"/>
			<path clip-path="url(#SVGID_4_)" fill="#222221" d="M61.792,173.749c-0.55,0.435-1.161,0.563-2.342,0.563     c-0.622,0-1.265-0.054-1.893-0.054c-0.259,0-0.729,0-1.053,0.03l-0.145,0.015v-0.322c0.55-0.045,0.758-0.33,0.809-0.86     c0.029-0.348,0.045-0.557,0.045-1.702v-2.186c0-1.083-0.016-1.547-0.137-1.846c-0.111-0.302-0.323-0.443-0.717-0.485v-0.323     c0.542,0.028,0.854,0.028,1.597,0.028c0.669,0,1.683-0.045,2.346-0.045c1.069,0,2.042,0.51,2.042,1.717     c0,0.896-0.552,1.492-1.655,1.763c1.224,0.25,1.878,0.957,1.878,2.105C62.566,172.843,62.313,173.359,61.792,173.749      M59.255,167.182c-0.207,0-0.402,0.014-0.617,0.014c-0.013,0.757-0.046,2.057-0.054,2.541c0.133,0.016,0.302,0.021,0.526,0.021     c1.12,0,1.777-0.477,1.777-1.302C60.888,167.649,60.281,167.182,59.255,167.182 M59.296,170.415     c-0.186,0-0.404,0.006-0.711,0.032c-0.002,0.313-0.002,0.361-0.002,0.907v0.681c0,0.652,0.01,0.998,0.105,1.23     c0.094,0.28,0.361,0.427,0.854,0.427c0.991,0,1.541-0.544,1.541-1.519C61.083,171.093,60.39,170.415,59.296,170.415"/>
			<path clip-path="url(#SVGID_4_)" fill="#222221" d="M69.105,174.139c-0.102,0.164-0.246,0.192-0.819,0.192     c-0.282,0-0.595-0.005-0.881-0.019c-0.716-0.024-1.365-0.053-2.159-0.053c-0.585,0-0.983,0.024-1.348,0.043v-0.321     c0.288-0.024,0.438-0.082,0.566-0.239c0.205-0.237,0.264-0.539,0.264-1.388c0-0.585,0.008-1.044,0.008-1.646v-1.229     c0-1.575-0.008-1.786-0.125-2.093c-0.104-0.299-0.325-0.441-0.713-0.484v-0.327l0.288,0.006c0.315,0.026,0.736,0.026,1.327,0.026     c0.564,0,1.003,0,1.293-0.026l0.304-0.006v0.327c-0.595,0-0.85,0.311-0.921,0.862c-0.023,0.2-0.039,0.384-0.039,1.715v1.931     c0,1.609,0.016,1.805,0.163,1.962c0.138,0.133,0.376,0.189,0.873,0.189c0.642,0,0.995-0.066,1.27-0.23     c0.333-0.173,0.565-0.528,0.692-1.005l0.441,0.11C69.455,173.117,69.24,173.943,69.105,174.139"/>
			<path clip-path="url(#SVGID_4_)" fill="#222221" d="M73.132,174.287c-0.273-0.004-0.711-0.004-1.255-0.004     c-0.556,0-0.978,0-1.27,0.004l-0.281,0.018v-0.326c0.544-0.04,0.763-0.327,0.795-0.857c0.035-0.348,0.051-0.554,0.051-1.702     v-1.942c0-0.301-0.016-0.616-0.016-0.952c0-0.621-0.029-0.893-0.113-1.139c-0.111-0.3-0.33-0.443-0.718-0.483v-0.325l0.281,0.004     c0.292,0.026,0.714,0.026,1.27,0.026c0.544,0,0.982,0,1.255-0.026l0.287-0.004v0.325c-0.501,0.036-0.752,0.345-0.79,0.862     c-0.043,0.343-0.043,0.661-0.043,1.712v1.942c0,1.51,0.008,1.771,0.131,2.075c0.099,0.306,0.313,0.448,0.702,0.484v0.326     L73.132,174.287z"/>
			<path clip-path="url(#SVGID_4_)" fill="#222221" d="M83.979,176.379c-0.906,0-1.874-0.273-2.788-0.78     c-0.515-0.29-1.25-0.78-1.786-1.225c-0.4,0.06-0.539,0.07-0.919,0.07c-2.338,0-3.888-1.529-3.888-3.834     c0-2.471,1.681-4.171,4.141-4.171c2.374,0,3.975,1.522,3.975,3.823c0,1.631-0.846,3.073-2.165,3.752     c0.417,0.213,0.836,0.441,1.247,0.688c1.175,0.712,1.991,1.014,2.753,1.014c0.476,0,0.869-0.103,1.334-0.331l0.151,0.398     C85.462,176.178,84.761,176.379,83.979,176.379 M78.5,167.218c-1.41,0-2.418,1.186-2.418,2.839c0,2.022,1.195,3.611,2.708,3.611     c1.422,0,2.434-1.2,2.434-2.884C81.224,168.791,80.03,167.218,78.5,167.218"/>
			<path clip-path="url(#SVGID_4_)" fill="#222221" d="M90.739,167.155c-0.131,0.176-0.188,0.407-0.21,0.87     c-0.018,0.501-0.035,0.882-0.035,1.589c0,0.275,0.017,1.075,0.017,1.87c0,0.813-0.138,1.305-0.481,1.786     c-0.527,0.771-1.4,1.171-2.566,1.171c-0.724,0-1.277-0.139-1.804-0.486c-0.805-0.517-1.123-1.203-1.123-2.438     c0-1.247,0.027-1.788,0.027-2.198c0-0.587,0.026-1.198-0.08-1.776c-0.066-0.428-0.28-0.599-0.764-0.642v-0.325l0.259,0.007     c0.309,0.025,0.738,0.025,1.296,0.025c0.552,0,0.974,0,1.283-0.025l0.268-0.007v0.325c-0.373,0.043-0.54,0.129-0.652,0.331     c-0.108,0.176-0.156,0.413-0.162,0.915c-0.029,0.726-0.037,1.451-0.037,2.172c0,2.003,0.042,2.382,0.4,2.803     c0.289,0.327,0.749,0.548,1.312,0.548c0.784,0,1.527-0.398,1.769-1.169c0.143-0.495,0.173-0.859,0.173-2.182v-1.139     c0-1.316-0.041-1.724-0.167-1.92c-0.129-0.214-0.306-0.322-0.599-0.359v-0.325c0.46,0.032,0.624,0.032,1.199,0.032     c0.595,0,0.752,0,1.216-0.032v0.325C91.021,166.938,90.868,167,90.739,167.155"/>
			<path clip-path="url(#SVGID_4_)" fill="#222221" d="M97.806,174.125c-0.111,0.178-0.229,0.206-0.868,0.206     c-0.387,0-0.775-0.021-1.167-0.028c-0.55-0.015-1.114-0.043-1.664-0.043c-0.552,0-1.114,0.022-1.669,0.043v-0.324     c0.517-0.039,0.756-0.354,0.799-0.859c0.043-0.346,0.043-0.709,0.043-1.318v-3.276c0-0.62-0.043-0.895-0.134-1.14     c-0.114-0.298-0.322-0.441-0.708-0.484v-0.322h5.417v1.013c0,0.276-0.014,0.548,0,0.824H97.44     c-0.073-0.885-0.459-1.133-1.837-1.133c-0.261,0-0.592,0.008-0.868,0.023c-0.025,0.457-0.041,0.599-0.041,1.277v1.342     c0.173,0.017,0.316,0.017,0.527,0.017c1.203,0,1.567-0.187,1.651-0.809h0.415c-0.025,0.184-0.025,0.565-0.025,1.152     c0,0.595,0.006,0.939,0.025,1.127h-0.415c-0.047-0.668-0.359-0.825-1.542-0.825c-0.215,0-0.423,0.007-0.636,0.007     c0,0.73,0.016,1.468,0.016,2.193c0,0.485,0.08,0.647,0.36,0.716c0.178,0.041,0.441,0.062,0.803,0.062     c1.247,0,1.688-0.284,1.953-1.229l0.46,0.089C98.116,173.235,97.927,173.906,97.806,174.125"/>
			<path clip-path="url(#SVGID_4_)" fill="#222221" d="M108.524,167.201c-0.012-1.01-0.603-1.405-2.188-1.405     c-0.323,0-0.63,0.02-0.983,0.045c-0.033,0.975-0.033,1.646-0.033,3.173c0.343,0.015,0.511,0.031,0.746,0.031     c1.308,0,1.692-0.225,1.766-0.981h0.509c0,0.391-0.029,0.8-0.029,1.188c0,0.519,0.029,1.055,0.029,1.571h-0.509     c-0.092-0.84-0.411-1.012-1.887-1.012c-0.258,0-0.352,0-0.625,0.021v1.564c0,0.308,0,0.648,0.01,1.014     c0.039,0.767,0.1,1.439,1.006,1.496v0.399l-0.343-0.02c-0.349-0.012-0.863-0.012-1.523-0.012c-0.674,0-1.186,0-1.541,0.012     l-0.345,0.02v-0.399c0.64-0.057,0.917-0.412,0.968-1.032c0.051-0.419,0.051-0.669,0.051-2.063v-3.507     c0-0.742-0.051-1.083-0.152-1.371c-0.125-0.365-0.378-0.533-0.866-0.595v-0.393h6.457c-0.031,0.275-0.031,0.724-0.031,1.305     c0,0.565,0,0.646,0.031,0.951H108.524z"/>
			<path clip-path="url(#SVGID_4_)" fill="#222221" d="M116.276,174.388c-0.429,0-0.667-0.059-0.91-0.205     c-0.386-0.271-0.792-0.951-1.024-1.354c-0.394-0.683-0.839-1.413-1.254-2.023c-0.064,0.004-0.125,0.004-0.172,0.004     c-0.115,0-0.207-0.004-0.325-0.004v0.61c0,0.313,0.012,0.628,0.012,0.937c0.013,0.63,0.023,0.898,0.115,1.143     c0.117,0.3,0.329,0.444,0.713,0.487v0.32l-0.264-0.017c-0.306-0.004-0.725,0-1.269,0c-0.53,0-0.95-0.004-1.257,0l-0.268,0.017     v-0.32c0.283-0.027,0.425-0.082,0.566-0.242c0.119-0.145,0.208-0.351,0.231-0.621c0.039-0.346,0.051-0.553,0.051-1.703v-1.937     c0-1.416-0.051-1.774-0.132-2.091c-0.088-0.316-0.328-0.444-0.716-0.488v-0.322c0.229,0.028,0.456,0.006,0.685,0.006     c0.607,0,0.793,0,1.519-0.037c0.61-0.021,0.977-0.028,1.254-0.028c0.786,0,1.27,0.116,1.664,0.391     c0.434,0.307,0.718,0.913,0.718,1.52c0,0.953-0.617,1.728-1.691,2.117c0.439,0.568,0.794,1.118,1.205,1.748     c0.367,0.595,0.74,1.107,1.026,1.399c0.156,0.17,0.264,0.219,0.482,0.289v0.32C116.928,174.374,116.638,174.388,116.276,174.388      M113.303,167.14c-0.237,0-0.441,0.043-0.699,0.092c0,0.687-0.012,1.928-0.012,2.888c0.127,0.021,0.362,0.037,0.505,0.037     c0.952,0,1.597-0.593,1.597-1.498C114.693,167.779,114.11,167.14,113.303,167.14"/>
			<path clip-path="url(#SVGID_4_)" fill="#222221" d="M124.638,174.287c-0.289-0.006-0.707-0.006-1.242-0.006     c-0.538,0-0.957,0-1.249,0.006l-0.265,0.018v-0.323c0.366-0.024,0.591-0.233,0.591-0.544c0-0.117-0.035-0.279-0.155-0.638     c-0.13-0.417-0.228-0.711-0.364-1.11h-2.228l-0.229,0.675c-0.18,0.525-0.271,0.907-0.271,1.102c0,0.334,0.15,0.491,0.521,0.516     v0.323c-0.445-0.018-0.599-0.023-1.157-0.023c-0.55,0-0.706,0.006-1.145,0.023v-0.323c0.168-0.024,0.228-0.043,0.354-0.16     c0.227-0.215,0.443-0.606,0.79-1.482l1.106-2.805c0.302-0.756,0.749-1.971,1.059-2.957h0.789c0.11,0.362,0.346,0.924,0.511,1.343     l1.637,4.177c0.276,0.703,0.47,1.134,0.63,1.398c0.151,0.273,0.316,0.412,0.593,0.486v0.323L124.638,174.287z M120.884,168.616     c-0.294,0.786-0.72,1.805-0.885,2.365h1.707L120.884,168.616z"/>
			<path clip-path="url(#SVGID_4_)" fill="#222221" d="M132.889,167.245c-0.129,0.213-0.162,0.405-0.176,1.022     c-0.037,1.027-0.045,2.654-0.045,3.422v1.774c0,0.273,0.037,0.677,0.037,0.841h-0.793c-0.752-0.983-2.315-2.895-2.315-2.895     c-0.199-0.239-1.634-2.018-2.365-2.911c0,0.246-0.018,0.1-0.018,0.847v0.753c0,0.869,0.018,1.731,0.053,2.597     c0.02,0.48,0.072,0.726,0.18,0.952c0.121,0.231,0.29,0.323,0.629,0.334v0.323c-0.405-0.023-0.826-0.023-1.224-0.023     c-0.419,0-0.83,0-1.247,0.023v-0.323c0.771-0.024,0.789-0.66,0.813-1.268c0.014-0.48,0.022-0.884,0.022-1.633v-2.441     c0-0.965-0.047-1.195-0.215-1.457c-0.124-0.183-0.277-0.243-0.621-0.28v-0.325c0.388,0.028,0.527,0.028,1.01,0.028     c0.484,0,0.617,0,0.993-0.028c0.141,0.247,0.359,0.482,1.168,1.454c1.128,1.381,2.154,2.56,3.112,3.762v-2.533     c0-1.152-0.024-1.454-0.079-1.741c-0.08-0.379-0.311-0.56-0.728-0.616v-0.325c0.479,0.028,0.635,0.028,1.222,0.028     c0.595,0,0.75,0,1.227-0.028v0.325C133.224,166.908,133.053,166.966,132.889,167.245"/>
			<path clip-path="url(#SVGID_4_)" fill="#222221" d="M140.966,174.027c-0.754,0.298-1.41,0.417-2.319,0.417l-0.111,0.464     c0.057-0.013,0.18,0,0.217,0c0.446,0,0.733,0.304,0.733,0.69c0,0.624-0.49,1.064-1.285,1.064c-0.229,0-0.447-0.043-0.695-0.153     l0.168-0.438c0.152,0.047,0.281,0.086,0.402,0.086c0.33,0,0.55-0.166,0.55-0.445c0-0.241-0.11-0.386-0.284-0.386     c-0.102,0-0.172,0.045-0.266,0.1l-0.243-0.059l0.229-0.953c-1.02-0.09-1.762-0.421-2.385-1.081     c-0.719-0.723-1.104-1.714-1.104-2.888c0-2.508,1.617-4.007,4.259-4.007c0.808,0,1.58,0.109,2.247,0.333     c-0.015,0.258-0.015,0.531-0.015,0.79c0,0.201,0.013,0.607,0.015,0.881h-0.44c-0.182-0.827-0.839-1.261-1.911-1.261     c-1.637,0-2.622,1.086-2.622,2.892c0,2.087,1.168,3.605,2.775,3.605c0.975,0,1.636-0.487,1.907-1.418l0.441,0.092     C141.127,172.754,141.021,173.416,140.966,174.027"/>
			<path clip-path="url(#SVGID_4_)" fill="#222221" d="M149.011,174.287c-0.29-0.006-0.715-0.006-1.238-0.006     c-0.546,0-0.967,0-1.25,0.006l-0.274,0.018v-0.323c0.378-0.024,0.601-0.233,0.601-0.544c0-0.117-0.043-0.279-0.153-0.638     c-0.137-0.417-0.237-0.711-0.382-1.11h-2.217l-0.234,0.675c-0.171,0.525-0.265,0.907-0.265,1.102     c0,0.334,0.153,0.491,0.525,0.516v0.323c-0.447-0.018-0.613-0.023-1.157-0.023c-0.55,0-0.708,0.006-1.148,0.023v-0.323     c0.166-0.024,0.231-0.043,0.356-0.16c0.219-0.215,0.445-0.606,0.792-1.482l1.094-2.805c0.304-0.756,0.758-1.971,1.067-2.957     h0.795c0.096,0.362,0.343,0.924,0.509,1.343l1.634,4.177c0.271,0.703,0.468,1.134,0.622,1.398     c0.163,0.273,0.324,0.412,0.599,0.486v0.323L149.011,174.287z M145.259,168.616c-0.3,0.786-0.723,1.805-0.895,2.365h1.716     L145.259,168.616z"/>
			<path clip-path="url(#SVGID_4_)" fill="#222221" d="M152.793,174.287c-0.283-0.004-0.713-0.004-1.261-0.004     c-0.554,0-0.974,0-1.277,0.004l-0.273,0.018v-0.326c0.548-0.04,0.75-0.327,0.797-0.857c0.037-0.348,0.045-0.554,0.045-1.702     v-1.942c0-0.301-0.008-0.616-0.008-0.952c0-0.621-0.027-0.893-0.111-1.139c-0.115-0.3-0.329-0.443-0.723-0.483v-0.325     l0.273,0.004c0.303,0.026,0.723,0.026,1.277,0.026c0.548,0,0.979,0,1.261-0.026l0.273-0.004v0.325     c-0.488,0.036-0.744,0.345-0.785,0.862c-0.042,0.343-0.042,0.661-0.042,1.712v1.942c0,1.51,0.012,1.771,0.13,2.075     c0.109,0.306,0.307,0.448,0.697,0.484v0.326L152.793,174.287z"/>
			<path clip-path="url(#SVGID_4_)" fill="#222221" d="M156.396,174.442c-0.667,0-1.154-0.088-1.944-0.4     c-0.034-0.437-0.122-1.109-0.208-1.661l0.44-0.07c0.275,0.94,0.896,1.427,1.78,1.427c0.83,0,1.385-0.434,1.385-1.085     c0-0.514-0.361-0.882-0.885-1.196l-1.213-0.782c-0.834-0.533-1.32-1.081-1.32-2.105c0-1.301,0.989-2.131,2.508-2.131     c0.75,0,1.369,0.139,1.902,0.419c-0.014,0.273-0.014,0.359-0.014,0.731c0,0.409,0,0.533,0.014,0.854h-0.441     c-0.17-0.833-0.683-1.302-1.48-1.302c-0.721,0-1.238,0.45-1.238,1.088c0,0.562,0.38,0.932,0.998,1.328l0.979,0.63     c0.942,0.621,1.475,1.211,1.475,2.137C159.133,173.582,158.015,174.442,156.396,174.442"/>
			<path clip-path="url(#SVGID_4_)" fill="#222221" d="M165.708,174.125c-0.1,0.178-0.214,0.206-0.85,0.206     c-0.4,0-0.78-0.021-1.173-0.028c-0.556-0.015-1.114-0.043-1.667-0.043c-0.56,0-1.112,0.022-1.667,0.043v-0.324     c0.517-0.039,0.752-0.354,0.797-0.859c0.033-0.346,0.033-0.709,0.033-1.318v-3.276c0-0.62-0.033-0.895-0.123-1.14     c-0.107-0.298-0.304-0.441-0.708-0.484v-0.322h5.419c0,0.332-0.008,0.683-0.008,1.013c0,0.276-0.016,0.548,0.008,0.824h-0.41     c-0.082-0.885-0.472-1.133-1.854-1.133c-0.25,0-0.589,0.008-0.864,0.023c-0.025,0.457-0.027,0.599-0.027,1.277v1.342     c0.167,0.017,0.302,0.017,0.515,0.017c1.202,0,1.569-0.187,1.646-0.809h0.413c-0.019,0.184-0.019,0.565-0.019,1.152     c0,0.595,0.011,0.939,0.019,1.127h-0.413c-0.033-0.668-0.35-0.825-1.549-0.825c-0.203,0-0.409,0.007-0.612,0.007     c0,0.73,0.002,1.468,0.002,2.193c0,0.485,0.084,0.647,0.366,0.716c0.17,0.041,0.431,0.062,0.793,0.062     c1.254,0,1.7-0.284,1.96-1.229l0.451,0.089C166.027,173.235,165.837,173.906,165.708,174.125"/>
			<path clip-path="url(#SVGID_4_)" fill="#222221" d="M28.929,154.468c-0.107,0.137-0.273,0.18-0.681,0.18     c-0.554,0-1.096-0.028-1.647-0.043c-0.47,0-0.835-0.02-1.081-0.02c-0.337,0-1.163,0.02-1.404,0.02l-0.156,0.015l0.043-0.245     c0.343-0.031,0.544-0.121,0.704-0.337c0.178-0.227,0.296-0.55,0.453-1.186c0.144-0.613,0.21-0.981,0.446-2.142l0.184-0.899     c0.176-0.896,0.248-1.427,0.248-1.712c0-0.493-0.182-0.7-0.667-0.753l0.041-0.249c0.076,0.004,0.125,0.004,0.16,0.004     c0.425,0,0.819,0.008,1.24,0.008c0.655,0,1.075-0.008,1.273-0.008c0.043,0,0.108,0,0.184-0.004l-0.045,0.249     c-0.35,0.022-0.541,0.108-0.71,0.332c-0.285,0.369-0.442,0.85-0.854,3.032l-0.147,0.747c-0.184,0.935-0.251,1.243-0.304,1.671     c-0.016,0.119-0.039,0.263-0.039,0.335c0,0.447,0.223,0.586,0.952,0.586c1.271,0,1.746-0.258,2.167-1.197l0.312,0.122     C29.314,153.709,29.059,154.288,28.929,154.468"/>
			<path clip-path="url(#SVGID_4_)" fill="#222221" d="M32.275,148.976c-0.347,0-0.575-0.221-0.575-0.538     c0-0.404,0.284-0.688,0.708-0.688c0.335,0,0.55,0.203,0.55,0.527C32.958,148.689,32.669,148.976,32.275,148.976 M31.049,154.742     c-0.227,0-0.38-0.123-0.38-0.331c0-0.1,0.039-0.283,0.092-0.529c0.147-0.591,0.347-1.412,0.458-1.831     c0.167-0.591,0.225-0.997,0.225-1.16c0-0.142-0.057-0.213-0.188-0.213c-0.099,0-0.2,0.039-0.433,0.112l-0.083,0.015l-0.031-0.313     c0.624-0.236,1.23-0.39,1.539-0.39c0.166,0,0.233,0.069,0.233,0.202s-0.062,0.488-0.261,1.279l-0.171,0.669     c-0.286,1.098-0.347,1.473-0.347,1.661c0,0.156,0.083,0.268,0.255,0.268c0.105,0,0.309-0.053,0.625-0.154l0.025,0.303     C31.997,154.576,31.359,154.742,31.049,154.742"/>
			<path clip-path="url(#SVGID_4_)" fill="#222221" d="M37.257,154.212c-0.437,0.391-0.96,0.536-1.761,0.536     c-0.879,0-1.404-0.146-1.404-0.374c0-0.086,0.006-0.194,0.123-0.679l0.583-2.547c0.188-0.825,0.33-1.485,0.538-2.411     c0.117-0.541,0.16-0.831,0.16-0.979c0-0.14-0.062-0.213-0.183-0.213c-0.088,0-0.338,0.06-0.504,0.112l-0.011-0.329l0.136-0.047     c0.609-0.195,1.122-0.313,1.356-0.313c0.142,0,0.238,0.067,0.238,0.188c0,0.125-0.066,0.405-0.257,1.24l-0.337,1.495     c-0.104,0.479-0.145,0.666-0.176,0.823c0.705-0.413,1.326-0.615,1.892-0.615c0.693,0,1.035,0.361,1.035,1.069     C38.684,152.22,38.081,153.493,37.257,154.212 M37.247,150.593c-0.198,0-0.46,0.082-0.76,0.244     c-0.329,0.169-0.576,0.358-0.699,0.522c-0.146,0.2-0.264,0.554-0.431,1.297c-0.17,0.7-0.253,1.137-0.253,1.299     c0,0.217,0.253,0.333,0.698,0.333c0.466,0,0.862-0.219,1.15-0.634c0.456-0.638,0.792-1.665,0.792-2.402     C37.744,150.833,37.576,150.593,37.247,150.593"/>
			<path clip-path="url(#SVGID_4_)" fill="#222221" d="M41.145,152.809c-0.09,0-0.182,0-0.335-0.008     c-0.033,0.201-0.041,0.375-0.041,0.55c0,0.567,0.205,0.872,0.597,0.872c0.352,0,0.817-0.186,1.472-0.604l0.13,0.379     c-0.842,0.513-1.472,0.75-2.042,0.75c-0.704,0-1.092-0.417-1.092-1.161c0-1.868,1.273-3.486,2.722-3.486     c0.718,0,1.131,0.333,1.131,0.896C43.687,152.03,42.577,152.809,41.145,152.809 M42.301,150.559     c-0.546,0-1.113,0.737-1.394,1.833h0.105c1.048,0,1.843-0.544,1.843-1.281C42.854,150.804,42.609,150.559,42.301,150.559"/>
			<path clip-path="url(#SVGID_4_)" fill="#222221" d="M48.211,151.559l-0.366-0.028c0.015-0.135,0.025-0.295,0.025-0.447     c0-0.202-0.178-0.346-0.462-0.346c-0.167,0-0.329,0.101-0.488,0.268c-0.425,0.49-0.595,1.247-0.838,2.512l-0.215,1.088     c-0.435,0.024-0.552,0.038-0.979,0.086c0.102-0.419,0.184-0.767,0.27-1.139l0.262-1.059c0.164-0.71,0.237-1.143,0.237-1.382     c0-0.277-0.061-0.402-0.195-0.402c-0.063,0-0.179,0.014-0.289,0.041l-0.285,0.096l-0.023-0.331     c0.554-0.229,1.186-0.412,1.46-0.412c0.112,0,0.186,0.053,0.205,0.167c0.028,0.122,0.047,0.29,0.067,0.48     c0.507-0.417,0.955-0.654,1.273-0.654c0.214,0,0.489,0.116,0.752,0.296C48.438,150.803,48.297,151.183,48.211,151.559"/>
			<path clip-path="url(#SVGID_4_)" fill="#222221" d="M52.037,150.793l-0.938-0.019l-0.468,2.313     c-0.126,0.595-0.137,0.76-0.137,0.848c0,0.162,0.071,0.25,0.225,0.25c0.076,0,0.246-0.046,0.505-0.121l0.121-0.031l0.039,0.32     c-0.588,0.251-1.202,0.396-1.524,0.396c-0.24,0-0.397-0.106-0.397-0.317c0-0.201,0.058-0.476,0.148-0.827     c0.098-0.4,0.177-0.724,0.273-1.164l0.347-1.666l-0.607,0.017l0.084-0.375c0.769-0.13,1.032-0.745,1.242-1.39l0.546-0.113     l-0.277,1.328l0.936-0.011L52.037,150.793z"/>
			<path clip-path="url(#SVGID_4_)" fill="#222221" d="M55.5,149.407l-0.368-0.294l1.382-1.558l1.018,0.245L55.5,149.407z      M54.24,152.809c-0.071,0-0.173,0-0.318-0.008c-0.041,0.201-0.049,0.375-0.049,0.55c0,0.567,0.208,0.872,0.603,0.872     c0.359,0,0.815-0.186,1.476-0.604l0.127,0.379c-0.829,0.513-1.47,0.75-2.046,0.75c-0.697,0-1.08-0.417-1.08-1.161     c0-1.868,1.259-3.486,2.714-3.486c0.713,0,1.127,0.333,1.127,0.896C56.795,152.03,55.687,152.809,54.24,152.809 M55.414,150.559     c-0.55,0-1.119,0.737-1.404,1.833h0.109c1.048,0,1.843-0.544,1.843-1.281C55.961,150.804,55.712,150.559,55.414,150.559"/>
			<path clip-path="url(#SVGID_4_)" fill="#222221" d="M74.884,146.336l-0.36-0.288l1.376-1.563l1.02,0.249L74.884,146.336z      M77.02,148.739H76.69c0.025-0.125,0.033-0.166,0.033-0.246c0-0.62-0.404-0.835-1.539-0.835c-0.378,0-0.729,0-1.1,0.033     c-0.237,0.934-0.39,1.747-0.591,2.754h0.417c0.726,0,1.032-0.008,1.285-0.061c0.415-0.07,0.669-0.329,0.79-0.772h0.31     c-0.162,0.659-0.361,1.611-0.431,2.19h-0.309c0.018-0.086,0.02-0.148,0.02-0.198c0-0.494-0.306-0.641-1.229-0.641     c-0.556,0-0.751,0.012-0.954,0.018c-0.061,0.284,0,0.039-0.264,1.328c-0.115,0.646-0.167,1.04-0.167,1.242     c0,0.384,0.208,0.497,0.956,0.497c1.427,0,1.858-0.229,2.299-1.203l0.278,0.113c-0.246,0.736-0.511,1.343-0.668,1.54     c-0.115,0.117-0.253,0.148-0.731,0.148c-0.403,0-0.805-0.004-1.197-0.021c-0.521-0.01-1.043-0.021-1.57-0.021     c-0.534,0-1.047,0.012-1.582,0.012l0.049-0.243c0.331-0.03,0.531-0.12,0.688-0.336c0.193-0.228,0.307-0.548,0.468-1.186     c0.147-0.618,0.188-0.886,0.441-2.143l0.187-0.897c0.182-0.884,0.251-1.428,0.251-1.714c0-0.492-0.192-0.699-0.67-0.752     l0.049-0.251h5.134C77.22,147.605,77.104,148.21,77.02,148.739"/>
			<path clip-path="url(#SVGID_4_)" fill="#222221" d="M82.6,150.788l-0.769-0.014c0.135,0.231,0.18,0.419,0.18,0.677     c0,1.032-0.868,1.84-1.999,1.84c-0.223,0-0.366-0.03-0.607-0.101c-0.278,0.17-0.372,0.254-0.372,0.362     c0,0.113,0.125,0.174,0.625,0.33l0.893,0.289c0.903,0.274,1.351,0.547,1.351,1.197c0,1.197-1.189,2.137-2.706,2.137     c-1.23,0-1.995-0.585-1.995-1.536c0-0.889,0.568-1.306,1.496-1.537c-0.574-0.208-0.694-0.308-0.694-0.496     c0-0.245,0.333-0.548,1.003-0.92c-0.349-0.247-0.507-0.575-0.507-1.031c0-1.075,0.846-1.882,1.979-1.882     c0.291,0,0.511,0.036,0.754,0.124h1.494L82.6,150.788z M80.443,150.534c-0.607,0-1.108,0.649-1.108,1.416     c0,0.519,0.311,0.889,0.75,0.889c0.589,0,1.071-0.623,1.071-1.388C81.157,150.882,80.88,150.534,80.443,150.534 M80.607,155.104     c-0.384-0.139-0.836-0.311-1.316-0.439c-0.772,0.184-1.316,0.771-1.316,1.42c0,0.605,0.525,1.019,1.326,1.019     c0.987,0,1.893-0.673,1.893-1.395C81.194,155.448,81.024,155.263,80.607,155.104"/>
			<path clip-path="url(#SVGID_4_)" fill="#222221" d="M86.833,154.746c-0.201,0-0.27-0.119-0.37-0.677     c-0.831,0.485-1.44,0.692-2.046,0.692c-0.666,0-1.07-0.353-1.07-0.968c0-0.603,0.296-1.44,0.75-2.14     c0.603-0.946,1.363-1.555,2.512-1.555c0.513,0,0.969,0.087,1.463,0.226l-0.061,0.18c-0.407,1.295-0.7,2.725-0.7,3.205     c0,0.314,0.066,0.477,0.199,0.477c0.094,0,0.335-0.063,0.615-0.162l0.035,0.348C87.577,154.582,87.025,154.746,86.833,154.746      M86.312,150.573c-0.439,0-0.895,0.335-1.281,0.98c-0.425,0.681-0.731,1.59-0.731,2.193c0,0.354,0.163,0.539,0.453,0.539     c0.417,0,1.143-0.367,1.433-0.653c0.169-0.158,0.243-0.385,0.359-0.804c0.179-0.696,0.353-1.332,0.448-2.08     C86.743,150.635,86.512,150.573,86.312,150.573"/>
			<path clip-path="url(#SVGID_4_)" fill="#222221" d="M91.834,148.119c-0.373,1.5-0.74,3.165-1.11,4.764     c-0.1,0.507-0.167,0.851-0.167,1.028c0,0.159,0.082,0.245,0.244,0.245c0.109,0,0.324-0.049,0.631-0.129l0.016,0.303     c-0.572,0.23-1.279,0.419-1.578,0.419c-0.21,0-0.341-0.118-0.341-0.337c0-0.16,0.043-0.356,0.207-1.063     c0.355-1.494,0.735-3.081,1.038-4.505c0.129-0.653,0.205-0.98,0.205-1.086c0-0.141-0.076-0.201-0.188-0.201     c-0.117,0-0.319,0.047-0.501,0.113l-0.023-0.341c0.569-0.206,1.195-0.361,1.523-0.361c0.162,0,0.232,0.07,0.232,0.189     C92.021,147.275,91.979,147.524,91.834,148.119"/>
			<path clip-path="url(#SVGID_4_)" fill="#222221" d="M94.632,148.976c-0.358,0-0.577-0.221-0.577-0.538     c0-0.404,0.292-0.688,0.701-0.688c0.346,0,0.554,0.203,0.554,0.527C95.311,148.689,95.022,148.976,94.632,148.976      M93.403,154.742c-0.22,0-0.378-0.123-0.378-0.331c0-0.1,0.037-0.283,0.1-0.529c0.14-0.591,0.339-1.412,0.454-1.831     c0.154-0.591,0.225-0.997,0.225-1.16c0-0.142-0.071-0.213-0.192-0.213c-0.101,0-0.205,0.039-0.429,0.112l-0.084,0.015     l-0.037-0.313c0.617-0.236,1.23-0.39,1.533-0.39c0.174,0,0.233,0.069,0.233,0.202s-0.049,0.488-0.256,1.279l-0.166,0.669     c-0.289,1.098-0.351,1.473-0.351,1.661c0,0.156,0.082,0.268,0.259,0.268c0.107,0,0.308-0.053,0.624-0.154l0.014,0.303     C94.361,154.576,93.714,154.742,93.403,154.742"/>
			<path clip-path="url(#SVGID_4_)" fill="#222221" d="M99.072,150.793l-0.936-0.019l-0.48,2.313     c-0.117,0.595-0.128,0.76-0.128,0.848c0,0.162,0.071,0.25,0.229,0.25c0.072,0,0.243-0.046,0.515-0.121l0.105-0.031l0.045,0.32     c-0.593,0.251-1.202,0.396-1.525,0.396c-0.233,0-0.384-0.106-0.384-0.317c0-0.201,0.041-0.476,0.127-0.827     c0.11-0.4,0.186-0.724,0.273-1.164l0.354-1.666l-0.597,0.017l0.079-0.375c0.76-0.13,1.024-0.745,1.247-1.39l0.535-0.113     l-0.285,1.328l0.94-0.011L99.072,150.793z"/>
			<path clip-path="url(#SVGID_4_)" fill="#222221" d="M102.535,149.407l-0.357-0.294l1.375-1.558l1.018,0.245L102.535,149.407z      M101.278,152.809c-0.081,0-0.184,0-0.323-0.008c-0.039,0.201-0.047,0.375-0.047,0.55c0,0.567,0.207,0.872,0.605,0.872     c0.353,0,0.815-0.186,1.478-0.604l0.125,0.379c-0.844,0.513-1.474,0.75-2.038,0.75c-0.711,0-1.092-0.417-1.092-1.161     c0-1.868,1.263-3.486,2.716-3.486c0.708,0,1.129,0.333,1.129,0.896C103.832,152.03,102.731,152.809,101.278,152.809      M102.451,150.559c-0.55,0-1.127,0.737-1.408,1.833h0.121c1.038,0,1.831-0.544,1.831-1.281     C102.995,150.804,102.75,150.559,102.451,150.559"/>
			<path clip-path="url(#SVGID_4_)" fill="#222221" d="M123.911,148.731h-0.335c0.014-0.116,0.025-0.207,0.025-0.26     c0-0.225-0.08-0.409-0.21-0.54c-0.216-0.201-0.614-0.285-1.472-0.285c-0.236,0-0.548,0.012-0.837,0.025     c-0.196,0.925-0.376,1.819-0.583,2.773c0.214,0,0.433,0.02,0.642,0.02c1.259,0,1.498-0.119,1.737-0.854h0.31     c-0.182,0.735-0.318,1.444-0.433,2.194h-0.317c0.011-0.075,0.031-0.135,0.031-0.188c0-0.188-0.082-0.366-0.219-0.469     c-0.194-0.153-0.423-0.184-1.1-0.184c-0.361,0-0.46,0.011-0.751,0.017l-0.15,0.76c-0.214,1.087-0.291,1.59-0.291,1.905     c0,0.463,0.201,0.677,0.663,0.728l-0.039,0.242l-0.184-0.012h-1.014h-1.445l-0.178,0.012l0.039-0.242     c0.343-0.029,0.549-0.121,0.692-0.337c0.192-0.227,0.309-0.548,0.456-1.186c0.163-0.634,0.219-0.974,0.455-2.144l0.187-0.896     c0.172-0.897,0.243-1.429,0.243-1.715c0-0.492-0.18-0.699-0.666-0.752l0.041-0.251h5.016     C124.112,147.605,123.989,148.19,123.911,148.731"/>
			<path clip-path="url(#SVGID_4_)" fill="#222221" d="M127.742,151.559l-0.366-0.028c0.023-0.135,0.035-0.295,0.035-0.447     c0-0.202-0.18-0.346-0.458-0.346c-0.167,0-0.343,0.101-0.484,0.268c-0.437,0.49-0.603,1.247-0.86,2.512l-0.207,1.088     c-0.423,0.024-0.542,0.038-0.973,0.086c0.103-0.419,0.187-0.767,0.274-1.139l0.244-1.059c0.168-0.71,0.258-1.143,0.258-1.382     c0-0.277-0.071-0.402-0.206-0.402c-0.07,0-0.168,0.014-0.283,0.041l-0.28,0.096l-0.039-0.331c0.55-0.229,1.182-0.412,1.468-0.412     c0.105,0,0.184,0.053,0.2,0.167c0.037,0.122,0.065,0.29,0.082,0.48c0.496-0.417,0.952-0.654,1.262-0.654     c0.212,0,0.487,0.116,0.749,0.296C127.973,150.803,127.84,151.183,127.742,151.559"/>
			<path clip-path="url(#SVGID_4_)" fill="#222221" d="M132.192,154.746c-0.192,0-0.259-0.119-0.357-0.677     c-0.84,0.485-1.454,0.692-2.045,0.692c-0.686,0-1.08-0.353-1.08-0.968c0-0.603,0.292-1.44,0.752-2.14     c0.601-0.946,1.361-1.555,2.509-1.555c0.501,0,0.964,0.087,1.455,0.226l-0.051,0.18c-0.413,1.295-0.702,2.725-0.702,3.205     c0,0.314,0.06,0.477,0.205,0.477c0.084,0,0.321-0.063,0.614-0.162l0.024,0.348C132.936,154.582,132.397,154.746,132.192,154.746      M131.684,150.573c-0.458,0-0.905,0.335-1.292,0.98c-0.429,0.681-0.731,1.59-0.731,2.193c0,0.354,0.163,0.539,0.451,0.539     c0.415,0,1.155-0.367,1.431-0.653c0.152-0.158,0.248-0.385,0.369-0.804c0.185-0.696,0.352-1.332,0.448-2.08     C132.108,150.635,131.869,150.573,131.684,150.573"/>
			<path clip-path="url(#SVGID_4_)" fill="#222221" d="M137.574,150.793l-0.93-0.019l-0.476,2.313     c-0.123,0.595-0.131,0.76-0.131,0.848c0,0.162,0.082,0.25,0.221,0.25c0.08,0,0.255-0.046,0.525-0.121l0.113-0.031l0.033,0.32     c-0.591,0.251-1.191,0.396-1.529,0.396c-0.233,0-0.38-0.106-0.38-0.317c0-0.201,0.043-0.476,0.135-0.827     c0.104-0.4,0.182-0.724,0.261-1.164l0.364-1.666l-0.601,0.017l0.08-0.375c0.771-0.13,1.034-0.745,1.24-1.39l0.543-0.113     l-0.29,1.328l0.948-0.011L137.574,150.793z"/>
			<path clip-path="url(#SVGID_4_)" fill="#222221" d="M139.798,152.809c-0.088,0-0.187,0-0.326-0.008     c-0.037,0.201-0.059,0.375-0.059,0.55c0,0.567,0.212,0.872,0.606,0.872c0.348,0,0.812-0.186,1.482-0.604l0.121,0.379     c-0.84,0.513-1.474,0.75-2.043,0.75c-0.706,0-1.09-0.417-1.09-1.161c0-1.868,1.266-3.486,2.727-3.486     c0.708,0,1.12,0.333,1.12,0.896C142.336,152.03,141.235,152.809,139.798,152.809 M140.953,150.559     c-0.542,0-1.112,0.737-1.398,1.833h0.117c1.048,0,1.831-0.544,1.831-1.281C141.502,150.804,141.261,150.559,140.953,150.559"/>
			<path clip-path="url(#SVGID_4_)" fill="#222221" d="M146.868,151.559l-0.38-0.028c0.023-0.135,0.041-0.295,0.041-0.447     c0-0.202-0.178-0.346-0.464-0.346c-0.178,0-0.339,0.101-0.488,0.268c-0.421,0.49-0.603,1.247-0.838,2.512l-0.223,1.088     c-0.423,0.024-0.544,0.038-0.979,0.086c0.112-0.419,0.194-0.767,0.279-1.139l0.246-1.059c0.172-0.71,0.251-1.143,0.251-1.382     c0-0.277-0.063-0.402-0.201-0.402c-0.063,0-0.171,0.014-0.281,0.041l-0.284,0.096l-0.037-0.331     c0.552-0.229,1.186-0.412,1.464-0.412c0.126,0,0.189,0.053,0.209,0.167c0.035,0.122,0.062,0.29,0.068,0.48     c0.507-0.417,0.959-0.654,1.277-0.654c0.218,0,0.487,0.116,0.735,0.296C147.09,150.803,146.954,151.183,146.868,151.559"/>
			<path clip-path="url(#SVGID_4_)" fill="#222221" d="M151.365,154.748c-0.227,0-0.362-0.129-0.362-0.337     c0-0.129,0.054-0.376,0.181-0.948l0.11-0.474c0.337-1.406,0.425-1.876,0.425-2.081c0-0.159-0.088-0.247-0.232-0.247     c-0.205,0-0.507,0.114-0.858,0.313c-0.356,0.21-0.636,0.439-0.762,0.644c-0.109,0.167-0.183,0.46-0.319,1.051     c-0.182,0.826-0.294,1.397-0.384,1.936c-0.439,0.026-0.552,0.039-0.989,0.088c0.227-0.843,0.388-1.546,0.554-2.314     c0.182-0.774,0.244-1.125,0.244-1.326c0-0.261-0.072-0.39-0.248-0.39c-0.098,0-0.289,0.047-0.55,0.131l-0.027-0.314     c0.542-0.209,1.125-0.376,1.4-0.376c0.243,0,0.323,0.152,0.323,0.688v0.083c0.86-0.487,1.739-0.771,2.354-0.771     c0.37,0,0.515,0.087,0.515,0.313c0,0.246-0.067,0.618-0.308,1.533c-0.129,0.521-0.257,1.066-0.302,1.313     c-0.064,0.327-0.101,0.535-0.101,0.658c0,0.163,0.097,0.262,0.255,0.262c0.099,0,0.312-0.053,0.581-0.146l0.029,0.318     C152.301,154.576,151.623,154.748,151.365,154.748"/>
			<path clip-path="url(#SVGID_4_)" fill="#222221" d="M156.107,148.976c-0.343,0-0.577-0.221-0.577-0.538     c0-0.404,0.303-0.688,0.706-0.688c0.345,0,0.556,0.203,0.556,0.527C156.792,148.689,156.501,148.976,156.107,148.976      M154.883,154.742c-0.223,0-0.366-0.123-0.366-0.331c0-0.1,0.031-0.283,0.09-0.529c0.142-0.591,0.341-1.412,0.462-1.831     c0.15-0.591,0.228-0.997,0.228-1.16c0-0.142-0.078-0.213-0.201-0.213c-0.103,0-0.2,0.039-0.435,0.112l-0.085,0.015l-0.027-0.313     c0.622-0.236,1.23-0.39,1.537-0.39c0.166,0,0.235,0.069,0.235,0.202s-0.058,0.488-0.267,1.279l-0.171,0.669     c-0.275,1.098-0.352,1.473-0.352,1.661c0,0.156,0.096,0.268,0.274,0.268c0.098,0,0.293-0.053,0.617-0.154l0.016,0.303     C155.843,154.576,155.193,154.742,154.883,154.742"/>
			<path clip-path="url(#SVGID_4_)" fill="#222221" d="M160.549,150.793l-0.934-0.019l-0.472,2.313     c-0.115,0.595-0.135,0.76-0.135,0.848c0,0.162,0.08,0.25,0.227,0.25c0.072,0,0.238-0.046,0.523-0.121l0.113-0.031l0.031,0.32     c-0.595,0.251-1.197,0.396-1.521,0.396c-0.23,0-0.392-0.106-0.392-0.317c0-0.201,0.045-0.476,0.145-0.827     c0.099-0.4,0.176-0.724,0.271-1.164l0.341-1.666l-0.595,0.017l0.082-0.375c0.767-0.13,1.026-0.745,1.237-1.39l0.541-0.113     l-0.275,1.328l0.94-0.011L160.549,150.793z"/>
			<path clip-path="url(#SVGID_4_)" fill="#222221" d="M164.022,149.407l-0.365-0.294l1.383-1.558l1.01,0.245L164.022,149.407z      M162.764,152.809c-0.08,0-0.172,0-0.328-0.008c-0.033,0.201-0.049,0.375-0.049,0.55c0,0.567,0.207,0.872,0.601,0.872     c0.355,0,0.819-0.186,1.48-0.604l0.123,0.379c-0.833,0.513-1.462,0.75-2.036,0.75c-0.709,0-1.094-0.417-1.094-1.161     c0-1.868,1.273-3.486,2.728-3.486c0.702,0,1.123,0.333,1.123,0.896C165.313,152.03,164.205,152.809,162.764,152.809      M163.92,150.559c-0.536,0-1.109,0.737-1.392,1.833h0.115c1.042,0,1.839-0.544,1.839-1.281     C164.482,150.804,164.229,150.559,163.92,150.559"/>
			<path clip-path="url(#SVGID_4_)" fill="#222221" d="M111.122,152.656c0.766,0,1.371-0.61,1.371-1.377     c0-0.76-0.605-1.365-1.371-1.365c-0.749,0-1.371,0.605-1.371,1.365C109.75,152.046,110.373,152.656,111.122,152.656"/>
			<path clip-path="url(#SVGID_4_)" fill="#222221" d="M64.12,152.656c0.756,0,1.363-0.61,1.363-1.377     c0-0.76-0.607-1.365-1.363-1.365c-0.758,0-1.371,0.605-1.371,1.365C62.749,152.046,63.362,152.656,64.12,152.656"/>
			
				<line clip-path="url(#SVGID_4_)" fill="none" stroke="#222221" stroke-width="0.941" x1="24.693" y1="159.727" x2="165.397" y2="159.727"/>
			<polygon clip-path="url(#SVGID_4_)" fill="#FFFFFF" points="24.783,140.563 24.783,93.198 165.729,93.308 165.729,140.563    "/>
			<path clip-path="url(#SVGID_4_)" fill="#FFFFFF" d="M58.097,125.686c0.094-0.196,0.212-0.219,0.323-0.434     c0-0.106,0-0.218-0.111-0.218c-0.425,0.111-0.752,0.542-0.864,0.979c0,0.098,0.112,0.098,0.229,0.098     C57.884,126.013,57.979,125.894,58.097,125.686"/>
			<path clip-path="url(#SVGID_4_)" fill="#9B9A9A" d="M116.721,112.993c-0.642-0.155-1.191,0-1.831,0     c-0.862,0.21-1.611,0.319-2.365,0.652c0.645-0.441,1.294-0.869,2.044-1.085c0.532-0.111,1.074-0.427,1.603-0.427     c0.655-0.104,1.298-0.331,1.831-0.104c0.536,0.215,1.406,0.215,1.511,0.532c0.218,0.644-0.323,1.291-0.975,1.721     c-0.099,0.214,0.324,0.319,0.324,0.535c-0.096,0.217-0.423,0.329-0.642,0.329c-0.218,0.104-0.425,0.432-0.642,0.648     c0.217,0,0,0.318,0.217,0.318c-0.437,0.539,0.207,1.614-0.437,1.832c-0.747,0.213-1.613,0.213-2.469,0     c0.433-0.111,0.963,0.104,1.281-0.334v-0.425c0-0.104-0.1-0.104-0.201-0.104c-0.118,0.104-0.225,0.104-0.225,0.104     c0-0.22-0.216-0.421-0.32-0.421c-0.641,0.098-1.188-0.219-1.606-0.652c0.322-0.11,0.646-0.217,0.966-0.11     c0.315,0,0.215-0.538,0.538-0.752h0.319c0.646-0.868,1.937-1.071,2.153-1.938C117.795,113.096,117.149,113.096,116.721,112.993"/>
			<path clip-path="url(#SVGID_4_)" fill="#2B4490" d="M78.433,139.666c0.659-0.149,1.279-0.534,1.929-0.766v0.231     c1.617-0.653,2.798-2.046,4.409-2.586c0.111,0,0.325,0.217,0.538,0.1c0.972-0.852,2.042-1.818,3.439-1.6     c0,0.104,0,0.208,0.117,0.208c0.106,0,0.208,0,0.208-0.104c-0.431,0.316-0.858,0.644-1.287,0.965     c-0.103,0.111,0,0.219,0.102,0.219c0.538-0.219,0.86-0.651,1.402-0.867c-0.104,0.112-0.104,0.327-0.216,0.436     c-2.04,1.508-3.542,3.229-5.164,5.05h-3.334c0-0.101,0-0.217-0.1-0.217c-3.773,0.319-7.433,0.217-11.195,0.217     c2.152-0.318,4.3-0.956,6.466-1.175C76.6,139.777,77.458,139.879,78.433,139.666"/>
			<path clip-path="url(#SVGID_4_)" fill="#2B4490" d="M24.783,93.2c0,4.195,0.106,8.383,0,12.583     c-0.329,11.732,0.223,23.336,0,35.068c10.757,0,21.373,0.203,32.125,0c0.863-1.719,3.013-1.508,4.625-2.256     c0.546-0.219,1.193,0.105,1.714,0c0.335,0,0.663,0,0.971,0.217c-1.173,0.638-2.252,1.39-3.329,2.039     c1.837,0.203,3.563,0.324,5.376,0c0.86-0.218,1.723-0.854,2.582-1.289c-0.75,0.219-1.398,0.539-2.05,0.958     c-0.101,0-0.425,0.113-0.425-0.1c0.112-0.219,0.425-0.319,0.647-0.54c0.106,0,0.223,0,0.223,0.117     c3.438-2.695,8.167-2.052,12.151-3.452c0.319-0.212,0.636-0.431,0.967-0.644c0.542-0.219,0.963-0.752,1.615-1.072     c0.854-0.646,1.511-1.4,1.821-2.478c0-0.106-0.103-0.217-0.103-0.217c-1.401,1.5-3.008,2.694-4.733,3.548     c-2.26,1.181-4.727,0.964-7.093,1.298c0.098-0.215,0.318-0.215,0.527-0.215c0-0.331,0.223-0.433,0.433-0.651h0.323     c0.106,0,0.106-0.213,0.221-0.213c0.208,0,0.538-0.108,0.425-0.108c-0.325-0.432-0.969,0.321-1.504,0     c0.213-0.215,0.102-0.54,0.325-0.644h0.425c0-0.219,0.215-0.432,0.215-0.432c1.618-0.967,3.125-1.725,4.627-2.583     c-0.327,0-0.531,0.331-0.858,0.11c0.207,0,0-0.325,0.207-0.325c1.2-0.322,2.162-0.971,3.343-1.392c-0.438,0-0.759,0.321-1.182,0     c0.217-0.11,0.319-0.335,0.636-0.335v-0.323c0-0.094,0.108-0.094,0.216-0.094c-0.108,0-0.216-0.108-0.216-0.108     c0.108-0.219,0.446-0.107,0.656-0.322c-0.11,0-0.325,0-0.325-0.111c0.325-0.433,0.862-0.55,1.402-0.64     c-0.112-0.216-0.439,0-0.439-0.216c0-0.111,0.112-0.111,0.223-0.111h-0.223c-0.212-0.107-0.101-0.326-0.101-0.433     c0.643-0.759,0.643-1.723,0.963-2.584c-0.102,0-0.21,0-0.21-0.105c-1.073,1.184-2.796,1.614-4.418,2.048h-0.531     c-0.542,0.206-1.283,0.206-1.831-0.117c-0.431-0.21-0.647-0.532-1.066-0.862c-0.871-0.526-1.733-0.963-2.7-1.285     c-2.684-0.864-5.482-1.296-8.285-1.182c1.189-0.651,2.491-0.704,3.772-1.07c1.829-0.548,3.541-1.184,5.479-1.076     c-0.318-0.107-0.748,0-1.077,0c-1.498-0.107-3.002,0.315-4.621,0.644c-1.075,0.216-2.038,0.651-3.114,0.852     c-0.646,0.223-0.969,0.866-1.721,0.757v-0.317c1.075-1.291,2.356-2.592,4.083-2.691c1.935-0.325,3.77,0,5.702,0.209     c1.395,0.107,2.688,0.44,4.095,0.75c0.535,0,0.64,0.874,1.063,0.974c0.651,0.218,1.297,0,1.945,0.44c0-0.223-0.11-0.44,0-0.654     c0.429-0.434,0.963,0.114,1.388-0.103c0.868-0.544-0.744-1.517-1.177-2.26c0-0.106,0.111-0.215,0.111-0.215     c0.858,0.746,1.504,1.615,2.579,2.144c0.536,0.215,1.836,0.548,1.61-0.102c-0.529-1.184-1.61-2.148-2.471-3.233v-0.429     c-0.214,0-0.214-0.104-0.314-0.207v-0.431c-0.446-0.213-0.337-0.647-0.546-0.967c-0.318-0.546-0.113-1.298-0.318-1.944     c-0.217-0.64-0.323-1.174-0.432-1.824c-0.324-1.831-0.747-3.448-0.966-5.175c-0.218-2.036,1.181-3.64,2.147-5.478     c0.75-1.297,1.615-2.581,3.013-3.448c0.32-1.293,1.189-2.362,2.045-3.431c0.967-1.193,2.467-1.62,3.764-2.262 M62.511,123.962     c0.104,0,0.316,0,0.316,0.103c0,0.535-0.316,0.969-0.86,1.081c0.86,0.219,1.721,0.219,2.576,0.647     c-0.09,0.219-0.324,0.101-0.421,0.101c0.539,0.32,1.175,0.118,1.716,0.539c-0.323,0.327-0.642,0-0.963,0     c3.338,0.967,6.874,1.728,9.673,3.877c-2.361,1.188-4.832,1.717-7.421,2.256c-0.329,0-0.535,0-0.86-0.1     c0,0.1,0,0.311-0.102,0.311c-0.435,0-0.754,0-1.082,0.217c-0.423,0.219-1.079,0.325-1.395,0c-0.104-0.101,0.316,0,0.433-0.217     h-0.873c-0.104,0-0.104-0.11-0.104-0.211c-0.53,0.101-1.177,0.327-1.708,0.428c-0.763,0.219-1.408,0.758-2.26,0.969     c-1.198,0.433-2.16,1.399-3.446,1.831c-0.106,0-0.106-0.11-0.106-0.215c0.106-0.325,0.536-0.429,0.754-0.749     c0-0.111,0-0.218-0.111-0.218c0.865-1.183,2.042-1.835,3.123-2.799v-0.315c0.32-0.436,0.845-0.647,1.067-1.188     c0.102-0.326,0.537-0.749,1.077-0.964c-0.098-0.111-0.325-0.111-0.325-0.327c-0.429,0-0.852,0.216-1.287-0.103     c0.207-0.206,0.458-0.307,0.719-0.38c-0.107-0.013-0.21-0.056-0.284-0.157c-0.121-0.219,0.2-0.458,0.534-0.544     c0.435-0.106,0.973-0.106,1.293-0.436c-0.747-0.1-1.625,0.219-2.375-0.206C60.356,125.793,61.208,124.6,62.511,123.962      M64.004,119.66c-0.094,0-0.208,0-0.316-0.109c0.108-0.105,0.108-0.217,0.108-0.323c-1.069,1.184-2.587,1.716-3.439,3.116     c-0.646,1.075-1.073,2.48-2.473,2.802c-0.439,0.105,0.094-0.321-0.111-0.217c-3.334,2.05-5.698,4.521-8.279,7.423     c0,0-0.11-0.106-0.11-0.217c1.399-1.825,2.475-3.54,3.442-5.487c1.398-0.754,2.562-1.847,3.65-3.015     c1.833-1.933,3.76-3.647,6.035-4.724c0.852-0.327,1.942-0.218,2.785,0.102C64.981,119.445,64.453,119.334,64.004,119.66"/>
			<path clip-path="url(#SVGID_4_)" fill="#C22126" d="M120.807,134.184c0.258-0.769,0.54-1.617,0.102-2.371     c-0.642-0.964,0.646-1.285,1.083-1.943c0.32-0.525-0.218-0.85-0.327-1.39c-0.111-0.215-0.54-0.102-0.756-0.427     c0.756-0.326,1.936-0.976,1.404-1.939c-0.32-0.533-0.862-1.399-0.223-1.936c0.754-0.43,1.944-0.325,2.26-1.083     c0.536-1.292-0.644-2.362-1.287-3.434c-0.321-0.649-0.75-1.078-1.18-1.718c-0.433-0.759-0.975-1.4-1.178-2.275     c-0.335-0.853,0.102-1.606,0.102-2.469c0.102-1.615-0.327-3.223-0.754-4.837c-0.322-0.744-0.435-1.618-0.753-2.365     c-0.108-0.423-0.217-0.87-0.53-1.287c-0.115-0.219-0.115-0.532,0-0.75c0.421-0.328,0.848-0.647,1.283-1.081     c0.317-0.538,0.107-1.296-0.435-1.619c-0.752-0.317-0.64,0.754-1.177,0.973h-0.331c-0.104-0.323,0.114-0.436,0.331-0.65     c0-0.108,0-0.322-0.112-0.322c-0.421,0-0.861-0.101-0.971-0.317c-1.071-1.512-2.574-2.26-4.185-2.902     c0.425,0.103,0.854,0.217,1.291,0.217c0.752,0.103,1.608,0.103,2.256-0.217c0.536-0.225,0.638-1.077,0.858-1.626     c0.215-0.417-0.111-1.069-0.322-1.383c-0.536-0.867-1.402-1.407-2.257-1.833h50.991c0.103,15.916-0.115,31.834-0.223,47.752     c-20.12,0.331-40.227,0-60.336,0c0.636-2.142,1.833-4.189,3.756-5.59c0.429-0.212,0.967-0.317,1.51-0.431     c1.831,0,3.658,0.535,5.474,0.749c0.222,0,0.443,0.113,0.655,0.219c0.642,0.108,1.398,0.108,2.04-0.105     C119.617,135.579,120.479,135.15,120.807,134.184"/>
			<path clip-path="url(#SVGID_4_)" fill="#FFFFFF" d="M66.7,133.863c-0.431,0.214-1.186,0.214-1.287,0.75     c-0.117,0.217,0.318,0.105,0.535,0.105c0.752-0.324,1.617,0,2.263-0.642c-0.224-0.214-0.544-0.114-0.762-0.438     C67.246,133.545,66.918,133.753,66.7,133.863"/>
			<path clip-path="url(#SVGID_4_)" fill="#969696" d="M345.369,136.431c0,45.094,36.644,81.751,81.753,81.751     c45.107,0,81.785-36.657,81.785-81.751c0-45.071-36.678-81.763-81.785-81.763C382.013,54.667,345.369,91.36,345.369,136.431      M362.75,136.431c0-35.485,28.9-64.375,64.372-64.375c35.5,0,64.396,28.889,64.396,64.375c0,35.484-28.896,64.349-64.396,64.349     C391.65,200.779,362.75,171.915,362.75,136.431"/>
			<path clip-path="url(#SVGID_4_)" fill="none" stroke="#C8C8C7" stroke-width="2" d="M345.369,136.431     c0,45.094,36.644,81.751,81.753,81.751c45.107,0,81.785-36.657,81.785-81.751c0-45.071-36.678-81.763-81.785-81.763     C382.013,54.667,345.369,91.36,345.369,136.431z M362.75,136.431c0-35.485,28.9-64.375,64.372-64.375     c35.5,0,64.396,28.889,64.396,64.375c0,35.484-28.896,64.349-64.396,64.349C391.65,200.779,362.75,171.915,362.75,136.431z"/>
			<polygon clip-path="url(#SVGID_4_)" fill="#969696" points="431.4,17.629 464.053,17.629 440.422,42.519 421.897,42.519    "/>
			<polygon clip-path="url(#SVGID_4_)" fill="none" stroke="#C8C8C7" stroke-width="2" points="431.4,17.629 464.053,17.629      440.422,42.519 421.897,42.519    "/>
			<polygon clip-path="url(#SVGID_4_)" fill="#969696" points="397.394,92.133 457.18,92.133 457.18,112.068 420.225,112.087      420.225,124.937 454.753,124.937 454.753,144.901 420.225,144.901 420.225,157.75 457.153,157.75 457.153,177.696      397.394,177.696    "/>
			<polygon clip-path="url(#SVGID_4_)" fill="none" stroke="#C8C8C7" stroke-width="2" points="397.394,92.133 457.18,92.133      457.18,112.068 420.225,112.087 420.225,124.937 454.753,124.937 454.753,144.901 420.225,144.901 420.225,157.75      457.153,157.75 457.153,177.696 397.394,177.696    "/>
			<path clip-path="url(#SVGID_4_)" fill="#222221" d="M243.505,123.834h-8.42c-2.337,0-4.211-1.792-4.211-4.013v-14.792     c0-2.226,1.874-4.012,4.211-4.012h4.208v-4.173h-7.51v-4.012h7.51c2.334,0,4.212,1.791,4.212,4.012V123.834z M235.085,119.821     h4.212v-14.797h-4.212V119.821z"/>
			<path clip-path="url(#SVGID_4_)" fill="#222221" d="M263.479,118.142c0,3.305-2.851,6.016-6.321,6.016     c-3.468,0-6.315-2.711-6.315-6.016V98.522c0-3.302,2.847-6.014,6.315-6.014c3.47,0,6.321,2.712,6.321,6.014v2.332h-4.218v-4.011     h-4.206v22.978h4.206v-4.012h4.218V118.142z"/>
			<path clip-path="url(#SVGID_4_)" fill="#222221" d="M283.45,123.834h-8.419c-2.334,0-4.214-1.792-4.214-4.013v-14.792     c0-2.226,1.88-4.012,4.214-4.012h4.206v-4.173h-7.513v-4.012h7.513c2.333,0,4.213,1.791,4.213,4.012V123.834z M275.031,119.821     h4.208v-14.797h-4.208V119.821z"/>
			<path clip-path="url(#SVGID_4_)" fill="#222221" d="M303.418,123.834h-8.421c-2.332,0-4.208-1.792-4.208-4.013V96.844     c0-2.221,1.876-4.012,4.208-4.012h4.216v-7.694h4.205V123.834z M294.997,119.821h4.216V96.842h-4.216V119.821z"/>
			<path clip-path="url(#SVGID_4_)" fill="#222221" d="M310.759,98.521c0-3.3,2.845-6.014,6.321-6.014     c3.468,0,6.313,2.714,6.313,6.014v11.819h-8.423v9.481h4.21v-4.013h4.213v2.332c0,3.307-2.846,6.014-6.313,6.014     c-3.476,0-6.321-2.707-6.321-6.014V98.521z M322.88,86.55l-11.604,4.226v-3.744l11.604-4.224V86.55z M314.971,106.326h4.215     v-9.483h-4.215V106.326z"/>
			<path clip-path="url(#SVGID_4_)" fill="#222221" d="M330.734,92.835h16.835c2.34,0,4.216,1.788,4.216,4.009v26.988h-4.216V96.844     h-4.207v26.988h-4.204V96.844h-4.212v26.988h-4.212V92.835z"/>
			<path clip-path="url(#SVGID_4_)" fill="#222221" d="M363.339,89.146h-4.215v-4.009h4.215V89.146z M363.339,124.155     c-1.14-0.055-2.162-0.487-2.964-1.191c-0.794-0.704-1.251-1.734-1.251-2.817V92.835h4.215V124.155z"/>
			<path clip-path="url(#SVGID_4_)" fill="#222221" d="M370.679,98.521c0-3.3,2.846-6.014,6.314-6.014     c3.477,0,6.322,2.714,6.322,6.014v11.819h-8.428v9.481h4.207v-4.013h4.221v2.332c0,3.307-2.846,6.014-6.322,6.014     c-3.469,0-6.314-2.707-6.314-6.014V98.521z M374.888,106.326h4.207v-9.483h-4.207V106.326z"/>
			<path clip-path="url(#SVGID_4_)" fill="#222221" d="M208.738,164.798h4.214v6.067h4.208v-13.329h-4.208     c-2.338,0-4.214-1.788-4.214-4.012v-11.647c0-3.312,2.845-6.02,6.312-6.02c3.473,0,6.322,2.708,6.322,6.02v4.39h-4.212v-6.074     h-4.208v13.332h4.208c2.33,0,4.212,1.786,4.212,4.012v11.651c0,3.305-2.849,6.012-6.322,6.012c-3.467,0-6.312-2.707-6.312-6.012     V164.798z"/>
			<path clip-path="url(#SVGID_4_)" fill="#222221" d="M237.13,147.89h-4.214v27.309c-1.135-0.051-2.163-0.483-2.953-1.188     c-0.797-0.704-1.257-1.734-1.257-2.819v-35.008h4.21v7.697h4.214V147.89z"/>
			<path clip-path="url(#SVGID_4_)" fill="#222221" d="M242.367,147.89c0-2.219,1.876-4.009,4.212-4.009h4.21v4.009h-4.21v26.986     h-4.212V147.89z"/>
			<path clip-path="url(#SVGID_4_)" fill="#222221" d="M269.731,174.875h-8.422c-2.325,0-4.203-1.785-4.203-4.01v-14.793     c0-2.224,1.878-4.01,4.203-4.01h4.212v-4.173h-7.508v-4.013h7.508c2.336,0,4.21,1.794,4.21,4.013V174.875z M261.309,170.865     h4.214V156.07h-4.214V170.865z"/>
			<path clip-path="url(#SVGID_4_)" fill="#222221" d="M284.982,147.89h-4.212v9.483h4.212c2.334,0,4.21,1.79,4.21,4.011v7.805     c0,3.305-2.845,6.01-6.313,6.01c-3.475,0-6.317-2.705-6.317-6.01v-2.332h4.208v4.01h4.212v-9.482h-4.212     c-2.328,0-4.208-1.79-4.208-4.011v-7.804c0-3.302,2.843-6.017,6.317-6.017c3.468,0,6.313,2.715,6.313,6.017v2.33h-4.21V147.89z"/>
			<path clip-path="url(#SVGID_4_)" fill="#222221" d="M296.025,136.182h4.21v7.695h4.208c2.335,0,4.211,1.794,4.211,4.013v22.976     c0,2.225-1.876,4.01-4.211,4.01h-8.418V136.182z M300.235,170.865h4.208V147.89h-4.208V170.865z"/>
			<path clip-path="url(#SVGID_4_)" fill="#222221" d="M315.995,149.567c0-3.303,2.849-6.015,6.316-6.015     c3.469,0,6.315,2.712,6.315,6.015v19.621c0,3.302-2.847,6.01-6.315,6.01c-3.468,0-6.316-2.708-6.316-6.01V149.567z      M320.205,170.865h4.21V147.89h-4.21V170.865z"/>
			<path clip-path="url(#SVGID_4_)" fill="#222221" d="M335.966,143.879h4.214v26.985h4.211v-26.985h4.212v26.985     c0,2.224-1.876,4.012-4.212,4.012h-8.425V143.879z"/>
			<path clip-path="url(#SVGID_4_)" fill="#222221" d="M355.935,147.89c0-2.219,1.882-4.009,4.217-4.009h4.209v4.009h-4.209v26.986     h-4.217V147.89z"/>
			<path clip-path="url(#SVGID_4_)" fill="#222221" d="M371.587,178.776h7.508v-3.901h-4.207c-2.331,0-4.209-1.785-4.209-4.01     v-21.298c0-3.303,2.846-6.015,6.314-6.015c3.477,0,6.322,2.712,6.322,6.015v29.209c0,2.224-1.882,4.012-4.221,4.012h-7.508     V178.776z M374.888,170.865h4.207V147.89h-4.207V170.865z"/>
		</g>
		<g clip-path="url(#SVGID_2_)">
			<defs>
				<rect id="SVGID_5_" x="-157.396" y="-425" width="2217.457" height="2063.938"/>
			</defs>
			<clipPath id="SVGID_6_">
				<use xlink:href="#SVGID_5_" overflow="visible"/>
			</clipPath>
			<path clip-path="url(#SVGID_6_)" fill="#222221" d="M24.634,220.345v-14.181h6.026c1.517,0,2.617,0.129,3.305,0.382     c0.685,0.256,1.236,0.71,1.647,1.359c0.412,0.651,0.619,1.398,0.619,2.236c0,1.062-0.313,1.94-0.938,2.636     c-0.626,0.693-1.562,1.13-2.806,1.31c0.622,0.362,1.133,0.759,1.535,1.189c0.403,0.434,0.946,1.199,1.628,2.304l1.731,2.765     h-3.422l-2.071-3.083c-0.733-1.104-1.238-1.8-1.508-2.085c-0.272-0.288-0.558-0.485-0.863-0.591     c-0.302-0.106-0.782-0.161-1.44-0.161h-0.581v5.92H24.634z M27.497,212.162h2.12c1.373,0,2.229-0.057,2.572-0.174     c0.341-0.116,0.609-0.317,0.801-0.599c0.194-0.286,0.292-0.64,0.292-1.064c0-0.479-0.127-0.862-0.382-1.156     c-0.255-0.293-0.616-0.479-1.08-0.556c-0.232-0.033-0.927-0.051-2.088-0.051h-2.235V212.162z"/>
			<path clip-path="url(#SVGID_6_)" fill="#222221" d="M44.861,217.076l2.708,0.456c-0.351,0.99-0.9,1.749-1.65,2.268     c-0.752,0.519-1.692,0.778-2.82,0.778c-1.786,0-3.108-0.584-3.967-1.751c-0.676-0.937-1.015-2.115-1.015-3.54     c0-1.704,0.445-3.036,1.336-4.001c0.889-0.963,2.013-1.445,3.374-1.445c1.529,0,2.734,0.505,3.617,1.516     c0.885,1.007,1.309,2.554,1.27,4.637h-6.812c0.02,0.806,0.24,1.432,0.658,1.882c0.419,0.447,0.943,0.673,1.567,0.673     c0.425,0,0.786-0.117,1.073-0.351C44.491,217.967,44.712,217.593,44.861,217.076 M45.015,214.328     c-0.021-0.786-0.224-1.383-0.61-1.794c-0.388-0.408-0.858-0.612-1.412-0.612c-0.595,0-1.083,0.215-1.471,0.646     c-0.387,0.433-0.577,1.02-0.571,1.761H45.015z M41.542,208.815l1.334-2.892h3.048l-2.662,2.892H41.542z"/>
			<path clip-path="url(#SVGID_6_)" fill="#222221" d="M49.677,221.023l3.106,0.378c0.049,0.359,0.17,0.608,0.355,0.743     c0.259,0.195,0.667,0.291,1.22,0.291c0.709,0,1.241-0.107,1.596-0.319c0.238-0.141,0.419-0.371,0.542-0.687     c0.083-0.227,0.125-0.642,0.125-1.249v-1.497c-0.811,1.107-1.837,1.663-3.075,1.663c-1.38,0-2.473-0.585-3.278-1.751     c-0.632-0.922-0.949-2.07-0.949-3.443c0-1.724,0.413-3.037,1.243-3.947c0.828-0.909,1.859-1.363,3.089-1.363     c1.271,0,2.32,0.557,3.146,1.672v-1.439h2.544v9.218c0,1.211-0.1,2.117-0.3,2.718c-0.201,0.6-0.48,1.071-0.842,1.412     c-0.361,0.342-0.844,0.609-1.447,0.804c-0.603,0.191-1.365,0.29-2.287,0.29c-1.741,0-2.976-0.298-3.705-0.895     s-1.093-1.354-1.093-2.27C49.667,221.262,49.671,221.152,49.677,221.023 M52.105,214.996c0,1.092,0.212,1.889,0.634,2.396     c0.423,0.504,0.942,0.758,1.563,0.758c0.662,0,1.223-0.26,1.681-0.778s0.687-1.287,0.687-2.307c0-1.063-0.218-1.854-0.657-2.369     c-0.438-0.518-0.994-0.774-1.664-0.774c-0.653,0-1.188,0.253-1.61,0.761C52.317,213.187,52.105,213.958,52.105,214.996"/>
			<path clip-path="url(#SVGID_6_)" fill="#222221" d="M62.03,206.166h2.718v2.513H62.03V206.166z M62.03,210.072h2.718v10.273     H62.03V210.072z"/>
			<path clip-path="url(#SVGID_6_)" fill="#222221" d="M66.906,215.065c0-0.904,0.223-1.776,0.666-2.623     c0.446-0.844,1.075-1.489,1.893-1.934c0.815-0.445,1.724-0.668,2.732-0.668c1.553,0,2.826,0.505,3.82,1.515     c0.993,1.008,1.49,2.282,1.49,3.825c0,1.554-0.501,2.841-1.504,3.863c-1.001,1.023-2.264,1.534-3.787,1.534     c-0.942,0-1.839-0.215-2.693-0.64c-0.854-0.425-1.503-1.049-1.95-1.872C67.129,217.245,66.906,216.243,66.906,215.065      M69.691,215.21c0,1.02,0.241,1.798,0.725,2.342c0.482,0.54,1.079,0.812,1.789,0.812c0.711,0,1.306-0.271,1.786-0.812     c0.48-0.544,0.721-1.33,0.721-2.363c0-1.005-0.241-1.777-0.721-2.32c-0.48-0.542-1.075-0.812-1.786-0.812     c-0.709,0-1.307,0.27-1.789,0.812C69.933,213.411,69.691,214.189,69.691,215.21"/>
			<path clip-path="url(#SVGID_6_)" fill="#222221" d="M88.979,220.346h-2.718v-5.242c0-1.109-0.057-1.826-0.174-2.154     c-0.117-0.324-0.304-0.577-0.565-0.758c-0.262-0.182-0.577-0.271-0.944-0.271c-0.47,0-0.893,0.129-1.265,0.388     c-0.376,0.258-0.631,0.599-0.771,1.024c-0.139,0.427-0.207,1.214-0.207,2.36v4.653h-2.72v-10.273h2.525v1.51     c0.895-1.16,2.025-1.741,3.385-1.741c0.601,0,1.148,0.109,1.645,0.323c0.497,0.217,0.873,0.492,1.128,0.828     c0.253,0.335,0.431,0.715,0.531,1.141c0.101,0.427,0.15,1.036,0.15,1.828V220.346z"/>
			<path clip-path="url(#SVGID_6_)" fill="#222221" d="M99.273,213.207l-2.467-0.445c0.275-0.992,0.753-1.729,1.43-2.205     c0.676-0.476,1.684-0.716,3.019-0.716c1.212,0,2.115,0.145,2.708,0.43c0.595,0.288,1.011,0.652,1.252,1.094     c0.243,0.441,0.364,1.252,0.364,2.432l-0.031,3.174c0,0.903,0.043,1.57,0.131,1.999s0.251,0.886,0.488,1.377h-2.689     c-0.069-0.18-0.157-0.447-0.26-0.804c-0.047-0.161-0.078-0.267-0.098-0.317c-0.464,0.45-0.961,0.788-1.49,1.016     c-0.527,0.227-1.092,0.339-1.692,0.339c-1.057,0-1.89-0.288-2.499-0.863c-0.612-0.571-0.916-1.297-0.916-2.174     c0-0.583,0.139-1.1,0.417-1.553c0.275-0.456,0.666-0.804,1.165-1.045c0.501-0.242,1.22-0.454,2.162-0.636     c1.271-0.236,2.149-0.459,2.641-0.665v-0.272c0-0.521-0.129-0.896-0.386-1.116c-0.257-0.223-0.747-0.333-1.461-0.333     c-0.485,0-0.861,0.094-1.132,0.284C99.659,212.396,99.439,212.729,99.273,213.207 M102.908,215.412     c-0.347,0.117-0.899,0.256-1.653,0.417c-0.754,0.162-1.249,0.319-1.48,0.475c-0.355,0.251-0.531,0.569-0.531,0.957     c0,0.379,0.141,0.708,0.425,0.986c0.282,0.275,0.644,0.414,1.083,0.414c0.491,0,0.957-0.158,1.402-0.481     c0.329-0.246,0.544-0.546,0.647-0.899c0.072-0.232,0.107-0.675,0.107-1.326V215.412z"/>
			<path clip-path="url(#SVGID_6_)" fill="#222221" d="M117.214,213.11l-2.679,0.483c-0.09-0.534-0.294-0.938-0.613-1.209     c-0.321-0.27-0.736-0.407-1.245-0.407c-0.677,0-1.215,0.235-1.621,0.704c-0.402,0.466-0.604,1.248-0.604,2.344     c0,1.22,0.207,2.08,0.616,2.583c0.408,0.502,0.958,0.754,1.648,0.754c0.517,0,0.938-0.146,1.267-0.439s0.562-0.799,0.696-1.515     l2.669,0.454c-0.275,1.227-0.809,2.152-1.593,2.777c-0.79,0.625-1.844,0.938-3.165,0.938c-1.504,0-2.699-0.474-3.594-1.422     c-0.893-0.946-1.339-2.258-1.339-3.936c0-1.696,0.448-3.017,1.343-3.961c0.897-0.946,2.112-1.419,3.637-1.419     c1.253,0,2.246,0.271,2.987,0.808C116.362,211.188,116.891,212.007,117.214,213.11"/>
			<path clip-path="url(#SVGID_6_)" fill="#222221" d="M121.308,213.207l-2.467-0.445c0.275-0.992,0.753-1.729,1.43-2.205     s1.685-0.716,3.019-0.716c1.212,0,2.115,0.145,2.708,0.43c0.595,0.288,1.012,0.652,1.252,1.094     c0.244,0.441,0.364,1.252,0.364,2.432l-0.031,3.174c0,0.903,0.042,1.57,0.13,1.999s0.251,0.886,0.489,1.377h-2.69     c-0.069-0.18-0.157-0.447-0.259-0.804c-0.047-0.161-0.077-0.267-0.098-0.317c-0.464,0.45-0.961,0.788-1.49,1.016     c-0.527,0.227-1.091,0.339-1.692,0.339c-1.056,0-1.89-0.288-2.499-0.863c-0.612-0.571-0.916-1.297-0.916-2.174     c0-0.583,0.139-1.1,0.417-1.553c0.275-0.456,0.667-0.804,1.165-1.045c0.501-0.242,1.221-0.454,2.163-0.636     c1.271-0.236,2.15-0.459,2.64-0.665v-0.272c0-0.521-0.128-0.896-0.386-1.116c-0.257-0.223-0.745-0.333-1.461-0.333     c-0.485,0-0.861,0.094-1.132,0.284C121.694,212.396,121.476,212.729,121.308,213.207 M124.943,215.412     c-0.347,0.117-0.899,0.256-1.653,0.417c-0.753,0.162-1.249,0.319-1.48,0.475c-0.355,0.251-0.531,0.569-0.531,0.957     c0,0.379,0.141,0.708,0.425,0.986c0.282,0.275,0.644,0.414,1.083,0.414c0.491,0,0.957-0.158,1.402-0.481     c0.33-0.246,0.544-0.546,0.649-0.899c0.071-0.232,0.105-0.675,0.105-1.326V215.412z"/>
			<path clip-path="url(#SVGID_6_)" fill="#222221" d="M139.713,220.346h-2.523v-1.508c-0.421,0.586-0.913,1.023-1.486,1.31     c-0.57,0.288-1.146,0.432-1.727,0.432c-1.179,0-2.191-0.477-3.033-1.427c-0.839-0.952-1.261-2.279-1.261-3.981     c0-1.74,0.408-3.065,1.229-3.971c0.819-0.905,1.853-1.359,3.104-1.359c1.148,0,2.141,0.477,2.979,1.432v-5.107h2.717V220.346z      M132.459,214.987c0,1.096,0.151,1.888,0.456,2.379c0.437,0.709,1.05,1.064,1.837,1.064c0.625,0,1.157-0.266,1.596-0.799     c0.44-0.531,0.659-1.326,0.659-2.385c0-1.179-0.213-2.029-0.638-2.549c-0.427-0.519-0.971-0.776-1.638-0.776     c-0.644,0-1.183,0.255-1.619,0.767C132.675,213.201,132.459,213.968,132.459,214.987"/>
			<path clip-path="url(#SVGID_6_)" fill="#222221" d="M148.344,217.076l2.708,0.456c-0.35,0.99-0.899,1.749-1.648,2.268     c-0.752,0.519-1.692,0.778-2.82,0.778c-1.786,0-3.108-0.584-3.967-1.751c-0.677-0.937-1.016-2.115-1.016-3.54     c0-1.704,0.446-3.036,1.337-4.001c0.889-0.963,2.013-1.445,3.374-1.445c1.529,0,2.734,0.505,3.617,1.516     c0.885,1.007,1.309,2.554,1.27,4.637h-6.812c0.02,0.806,0.24,1.432,0.658,1.882c0.419,0.447,0.943,0.673,1.567,0.673     c0.425,0,0.786-0.117,1.073-0.351C147.974,217.967,148.194,217.593,148.344,217.076 M148.497,214.328     c-0.02-0.786-0.223-1.383-0.609-1.794c-0.388-0.408-0.858-0.612-1.412-0.612c-0.595,0-1.083,0.215-1.472,0.646     c-0.386,0.433-0.576,1.02-0.57,1.761H148.497z M145.025,208.815l1.334-2.892h3.048l-2.662,2.892H145.025z"/>
			<path clip-path="url(#SVGID_6_)" fill="#222221" d="M153.208,210.072h2.505v1.404c0.897-1.092,1.964-1.635,3.202-1.635     c0.658,0,1.229,0.135,1.71,0.404c0.485,0.272,0.883,0.681,1.191,1.23c0.452-0.55,0.938-0.958,1.462-1.23     c0.521-0.27,1.079-0.404,1.673-0.404c0.754,0,1.392,0.151,1.915,0.457c0.521,0.308,0.911,0.757,1.168,1.35     c0.188,0.439,0.282,1.148,0.282,2.129v6.568h-2.72v-5.871c0-1.021-0.092-1.678-0.281-1.974c-0.25-0.387-0.638-0.581-1.16-0.581     c-0.38,0-0.738,0.116-1.073,0.35c-0.335,0.231-0.579,0.57-0.726,1.021c-0.15,0.447-0.223,1.156-0.223,2.122v4.934h-2.718v-5.63     c0-0.999-0.049-1.645-0.146-1.933c-0.098-0.291-0.247-0.507-0.449-0.649c-0.205-0.143-0.478-0.214-0.828-0.214     c-0.418,0-0.794,0.112-1.129,0.339c-0.337,0.226-0.577,0.552-0.722,0.978c-0.145,0.425-0.218,1.132-0.218,2.117v4.992h-2.718     V210.072z"/>
			<path clip-path="url(#SVGID_6_)" fill="#222221" d="M171.026,206.166h2.718v2.513h-2.718V206.166z M171.026,210.072h2.718v10.273     h-2.718V210.072z"/>
			<path clip-path="url(#SVGID_6_)" fill="#222221" d="M183.242,224.253v-5.165c-0.354,0.46-0.797,0.82-1.324,1.089     c-0.53,0.268-1.1,0.4-1.712,0.4c-1.167,0-2.127-0.437-2.882-1.316c-0.891-1.023-1.336-2.413-1.336-4.169     c0-1.649,0.416-2.938,1.252-3.862c0.836-0.925,1.872-1.388,3.11-1.388c0.682,0,1.275,0.144,1.776,0.434     c0.499,0.292,0.942,0.729,1.33,1.316v-1.52h2.504v14.181H183.242z M183.33,215.084c0-1.053-0.215-1.833-0.644-2.346     c-0.429-0.513-0.967-0.769-1.611-0.769c-0.658,0-1.208,0.262-1.649,0.782c-0.441,0.523-0.662,1.352-0.662,2.487     c0,1.128,0.212,1.941,0.638,2.442c0.427,0.499,0.95,0.75,1.578,0.75c0.625,0,1.172-0.282,1.643-0.842     C183.096,217.027,183.33,216.191,183.33,215.084"/>
			<path clip-path="url(#SVGID_6_)" fill="#222221" d="M195.392,220.346v-1.537c-0.374,0.548-0.866,0.979-1.476,1.296     c-0.609,0.315-1.252,0.475-1.929,0.475c-0.69,0-1.31-0.151-1.858-0.456c-0.547-0.302-0.944-0.728-1.189-1.277     c-0.245-0.548-0.367-1.306-0.367-2.271v-6.502h2.718v4.722c0,1.444,0.051,2.329,0.148,2.656c0.101,0.325,0.285,0.582,0.548,0.772     c0.264,0.19,0.599,0.286,1.006,0.286c0.464,0,0.88-0.127,1.249-0.382c0.368-0.256,0.62-0.573,0.754-0.948     c0.135-0.378,0.202-1.303,0.202-2.771v-4.335h2.718v10.273H195.392z"/>
			<path clip-path="url(#SVGID_6_)" fill="#222221" d="M206.68,217.077l2.71,0.452c-0.349,0.994-0.899,1.75-1.651,2.27     c-0.75,0.521-1.69,0.78-2.82,0.78c-1.786,0-3.106-0.585-3.965-1.751c-0.676-0.937-1.016-2.115-1.016-3.542     c0-1.702,0.445-3.035,1.334-3.999c0.891-0.963,2.016-1.445,3.377-1.445c1.528,0,2.734,0.503,3.617,1.512     c0.884,1.011,1.305,2.557,1.266,4.64h-6.809c0.021,0.806,0.239,1.433,0.658,1.88c0.419,0.45,0.942,0.673,1.568,0.673     c0.425,0,0.782-0.115,1.073-0.348C206.313,217.965,206.533,217.594,206.68,217.077 M206.835,214.33     c-0.021-0.787-0.222-1.387-0.608-1.795c-0.388-0.411-0.858-0.615-1.413-0.615c-0.595,0-1.084,0.218-1.471,0.648     c-0.386,0.434-0.577,1.02-0.57,1.762H206.835z"/>
			<path clip-path="url(#SVGID_6_)" fill="#222221" d="M31.221,238.905v-2.39h6.172v5.649c-0.599,0.58-1.47,1.091-2.605,1.532     c-1.139,0.443-2.291,0.662-3.461,0.662c-1.48,0-2.775-0.309-3.878-0.932c-1.102-0.623-1.931-1.512-2.485-2.672     c-0.554-1.156-0.832-2.415-0.832-3.775c0-1.479,0.309-2.79,0.928-3.937c0.62-1.149,1.525-2.029,2.718-2.643     c0.909-0.47,2.042-0.705,3.397-0.705c1.759,0,3.135,0.371,4.124,1.108s1.626,1.757,1.911,3.062l-2.843,0.53     c-0.2-0.694-0.577-1.244-1.128-1.649c-0.552-0.402-1.24-0.604-2.063-0.604c-1.253,0-2.249,0.399-2.986,1.191     c-0.738,0.793-1.105,1.97-1.105,3.529c0,1.685,0.372,2.944,1.12,3.787c0.75,0.842,1.729,1.264,2.94,1.264     c0.601,0,1.202-0.117,1.805-0.354c0.603-0.234,1.122-0.521,1.553-0.856v-1.798H31.221z"/>
			<path clip-path="url(#SVGID_6_)" fill="#222221" d="M40.042,244.118v-14.181h6.026c1.517,0,2.616,0.129,3.305,0.382     c0.685,0.256,1.236,0.71,1.647,1.359c0.412,0.651,0.619,1.397,0.619,2.236c0,1.062-0.312,1.94-0.938,2.635     c-0.625,0.693-1.562,1.131-2.806,1.311c0.622,0.362,1.132,0.758,1.535,1.189c0.403,0.433,0.947,1.199,1.629,2.303l1.73,2.766     h-3.423l-2.07-3.084c-0.733-1.104-1.238-1.799-1.508-2.084c-0.272-0.289-0.558-0.485-0.863-0.591     c-0.302-0.107-0.782-0.162-1.44-0.162h-0.581v5.921H40.042z M42.906,235.936h2.119c1.373,0,2.229-0.057,2.573-0.174     c0.341-0.117,0.609-0.317,0.801-0.599c0.194-0.286,0.292-0.64,0.292-1.064c0-0.479-0.127-0.862-0.382-1.157     c-0.255-0.292-0.616-0.479-1.079-0.556c-0.233-0.032-0.928-0.05-2.089-0.05h-2.236V235.936z"/>
			<path clip-path="url(#SVGID_6_)" fill="#222221" d="M67.128,244.119h-3.115l-1.239-3.222h-5.669l-1.168,3.222h-3.038     l5.523-14.181h3.026L67.128,244.119z M61.855,238.509l-1.954-5.263l-1.915,5.263H61.855z"/>
			<polygon clip-path="url(#SVGID_6_)" fill="#222221" points="68.674,244.119 68.674,229.938 71.459,229.938 77.264,239.408      77.264,229.938 79.924,229.938 79.924,244.119 77.051,244.119 71.336,234.872 71.336,244.119    "/>
			<path clip-path="url(#SVGID_6_)" fill="#222221" d="M82.943,229.938h5.234c1.178,0,2.079,0.092,2.697,0.27     c0.832,0.247,1.544,0.683,2.137,1.308s1.047,1.39,1.355,2.297c0.309,0.905,0.464,2.023,0.464,3.352     c0,1.167-0.145,2.173-0.435,3.019c-0.354,1.032-0.86,1.865-1.519,2.503c-0.497,0.485-1.167,0.862-2.011,1.133     c-0.633,0.199-1.478,0.301-2.537,0.301h-5.386V229.938z M85.806,232.337v9.393h2.138c0.801,0,1.378-0.044,1.731-0.136     c0.466-0.115,0.85-0.312,1.157-0.589c0.306-0.278,0.556-0.734,0.75-1.37c0.191-0.633,0.29-1.5,0.29-2.597     c0-1.096-0.099-1.938-0.29-2.524c-0.195-0.587-0.464-1.044-0.813-1.373c-0.348-0.33-0.789-0.552-1.325-0.669     c-0.4-0.09-1.183-0.135-2.352-0.135H85.806z"/>
			<polygon clip-path="url(#SVGID_6_)" fill="#222221" points="102.762,244.119 102.762,229.938 113.277,229.938 113.277,232.337      105.625,232.337 105.625,235.48 112.745,235.48 112.745,237.869 105.625,237.869 105.625,241.729 113.548,241.729      113.548,244.119    "/>
			<path clip-path="url(#SVGID_6_)" fill="#222221" d="M115.25,239.505l2.785-0.27c0.168,0.934,0.509,1.62,1.022,2.058     c0.514,0.439,1.205,0.66,2.075,0.66c0.922,0,1.616-0.196,2.084-0.586c0.468-0.391,0.701-0.847,0.701-1.369     c0-0.334-0.099-0.62-0.294-0.854c-0.199-0.235-0.54-0.442-1.03-0.616c-0.335-0.116-1.1-0.322-2.293-0.618     c-1.535-0.38-2.612-0.849-3.231-1.402c-0.871-0.781-1.306-1.731-1.306-2.854c0-0.722,0.205-1.396,0.616-2.025     c0.408-0.63,0.999-1.108,1.769-1.438c0.771-0.328,1.7-0.492,2.79-0.492c1.779,0,3.121,0.391,4.02,1.169     c0.899,0.781,1.371,1.823,1.416,3.124l-2.863,0.128c-0.123-0.73-0.384-1.255-0.787-1.573c-0.405-0.319-1.008-0.479-1.815-0.479     c-0.833,0-1.484,0.172-1.954,0.513c-0.302,0.219-0.456,0.515-0.456,0.882c0,0.335,0.144,0.621,0.427,0.86     c0.362,0.302,1.238,0.619,2.63,0.947c1.394,0.329,2.424,0.669,3.092,1.02c0.666,0.353,1.189,0.833,1.566,1.441     c0.377,0.611,0.566,1.363,0.566,2.261c0,0.811-0.225,1.573-0.677,2.282c-0.452,0.71-1.092,1.236-1.915,1.58     c-0.825,0.345-1.856,0.519-3.085,0.519c-1.795,0-3.17-0.414-4.13-1.244C116.013,242.299,115.438,241.09,115.25,239.505"/>
			<polygon clip-path="url(#SVGID_6_)" fill="#222221" points="132.382,244.119 132.382,232.337 128.174,232.337 128.174,229.938      139.445,229.938 139.445,232.337 135.245,232.337 135.245,244.119    "/>
		</g>
	</g>
</g>
</svg>